<?xml version="1.0" encoding="UTF-8" standalone="no" ?>
<!DOCTYPE svg PUBLIC "-//W3C//DTD SVG 1.1//EN" "http://www.w3.org/Graphics/SVG/1.1/DTD/svg11.dtd">
<svg xmlns="http://www.w3.org/2000/svg" xmlns:xlink="http://www.w3.org/1999/xlink" version="1.1" width="512" height="512" viewBox="0 0 512 512" xml:space="preserve">
<desc>Created with Fabric.js 4.6.0</desc>
<defs>
</defs>
<g transform="matrix(3.97 0 0 4.66 246.9 278.82)" id="CgAFdhcfkjoB5OOcDP3Td"  >
<path style="stroke: rgb(135,128,122); stroke-width: 0; stroke-dasharray: none; stroke-linecap: butt; stroke-dashoffset: 0; stroke-linejoin: miter; stroke-miterlimit: 4; fill: rgb(253,231,213); fill-rule: nonzero; opacity: 1;" vector-effect="non-scaling-stroke"  transform=" translate(0, 0)" d="M -0.49716 -45.89244 C 43.96612 -44.99167 46.55554 -23.621380000000002 41.69023 2.1559000000000026 C 36.82492 27.933180000000004 40.41546 19.58968 29.86861 30.529850000000003 C 19.32176 41.470020000000005 16.3413 46.046710000000004 -0.49716000000000093 45.91658 C -17.335630000000002 45.78645 -21.564220000000002 41.52890000000001 -31.94294 30.588730000000005 C -42.32165 19.648560000000003 -38.15674 29.208860000000005 -42.01202 2.1558900000000065 C -45.8673 -24.897069999999992 -44.96045 -46.79321999999999 -0.49716000000000093 -45.89245 z" stroke-linecap="round" />
</g>
<g transform="matrix(1 0 0 0.98 152.15 252.58)" id="0d44dwyfL01B-Z9pwT5V9"  >
<path style="stroke: rgb(135,128,122); stroke-width: 3; stroke-dasharray: none; stroke-linecap: butt; stroke-dashoffset: 0; stroke-linejoin: miter; stroke-miterlimit: 4; fill: none; fill-rule: nonzero; opacity: 1;" vector-effect="non-scaling-stroke"  transform=" translate(0, 0)" d="M -68.63627 7.60845 C -66.48913 23.13295 -61.29013 28.763560000000002 -61.29013 28.763560000000002 C -61.23139 28.87797 -61.18125 28.97427 -61.12123 29.08799 C -57.67895 35.610730000000004 -35.53295 41.29123 -4.6154399999999995 42.73811 C 14.40239 43.62811 23.279320000000002 41.447269999999996 36.82202 39.18089 L 36.82202 39.18089 C 52.25527 36.59813 64.44446 24.37189 67.28667 8.623629999999999 L 68.1952 3.5896299999999988 C 68.1952 3.5896299999999988 70.31537 -9.107860000000002 70.01487 -14.525300000000001 C 69.80891 -18.23842 71.17619 -24.926540000000003 67.85497000000001 -29.45193 C 59.68809000000001 -40.57988 42.288380000000004 -41.74821 7.854970000000009 -42.71884 C -22.31969999999999 -43.56942 -38.59216999999999 -42.123400000000004 -60.420929999999984 -35.9913 L -60.420929999999984 -35.9913 C -66.02652999999998 -34.41659 -69.94632999999999 -29.244270000000004 -70.04475999999998 -23.29231 C -70.21355999999999 -13.085420000000001 -70.25774999999999 -4.11543 -68.63625999999998 7.608449999999998 z" stroke-linecap="round" />
</g>
<g transform="matrix(-1 0 0 0.98 340 251.92)" id="H1g3OZ_tBAuEmPZTfXr9W"  >
<path style="stroke: rgb(135,128,122); stroke-width: 3; stroke-dasharray: none; stroke-linecap: butt; stroke-dashoffset: 0; stroke-linejoin: miter; stroke-miterlimit: 4; fill: rgb(255,255,255); fill-opacity: 0; fill-rule: nonzero; opacity: 1;" vector-effect="non-scaling-stroke"  transform=" translate(0, 0)" d="M -68.63601 7.60839 C -66.48887 23.13289 -61.28987 28.7635 -61.28987 28.7635 C -61.23113 28.87791 -61.18099 28.97421 -61.12097 29.08793 C -57.67869 35.61067 -35.53269 41.29117 -4.615180000000002 42.73805 C 14.4028 43.62805 23.281339999999997 41.44699 36.82349 39.18068 L 36.82349 39.18068 C 52.25581 36.598040000000005 64.43821 24.407860000000003 67.27058 8.714120000000001 L 68.19545 3.589570000000001 C 68.19545 3.589570000000001 70.31562 -9.10792 70.01512 -14.52536 C 69.80915999999999 -18.23848 71.17644 -24.9266 67.85522 -29.45199 C 59.688340000000004 -40.57994 42.28863 -41.74827 7.855220000000003 -42.7189 C -22.322749999999996 -43.56957 -38.60263 -42.12143 -60.429140000000004 -35.98928 L -60.429140000000004 -35.98928 C -66.03083000000001 -34.41549 -69.94599000000001 -29.26286 -70.04434 -23.335 C -70.21391 -13.11414 -70.25972 -4.13158 -68.63601 7.60839 z" stroke-linecap="round" />
</g>
<g transform="matrix(1 0 0 1 246.11 234.73)" id="chywfM-lnNDXviiCx4xd2"  >
<path style="stroke: rgb(135,128,122); stroke-width: 4; stroke-dasharray: none; stroke-linecap: butt; stroke-dashoffset: 0; stroke-linejoin: miter; stroke-miterlimit: 4; fill: none; fill-rule: nonzero; opacity: 1;" vector-effect="non-scaling-stroke"  transform=" translate(0, 0)" d="M -23.95685 2.73027 L -21.41791 1.66151 C -7.543859999999999 -4.178710000000001 8.095840000000003 -4.1947600000000005 21.98185 1.61696 C 22.63401 1.88991 23.47594 2.2445399999999998 23.956860000000002 2.4470099999999997" stroke-linecap="round" />
</g>
<g transform="matrix(0.4 0 0 0.3 75.6 239.5)" id="09KgFQx_OqQp93Hj4yxOI"  >
<path style="stroke: rgb(229,245,87); stroke-width: 0; stroke-dasharray: none; stroke-linecap: butt; stroke-dashoffset: 0; stroke-linejoin: miter; stroke-miterlimit: 4; fill: rgb(135,128,122); fill-rule: nonzero; opacity: 1;" vector-effect="non-scaling-stroke"  transform=" translate(0, 0)" d="M -15.01502 -15.01502 L 15.01501 -15.01502 L 15.01501 15.01501 L -15.01502 15.01501 z" stroke-linecap="round" />
</g>
<g transform="matrix(0.4 0 0 0.3 416.34 239.5)" id="Dd9gsDOnPjDSReIxq5PGx"  >
<path style="stroke: rgb(229,245,87); stroke-width: 0; stroke-dasharray: none; stroke-linecap: butt; stroke-dashoffset: 0; stroke-linejoin: miter; stroke-miterlimit: 4; fill: rgb(135,128,122); fill-rule: nonzero; opacity: 1;" vector-effect="non-scaling-stroke"  transform=" translate(0, 0)" d="M -15.01502 -15.01502 L 15.01501 -15.01502 L 15.01501 15.01501 L -15.01502 15.01501 z" stroke-linecap="round" />
</g>
<g transform="matrix(1 0 0 1 249.19 148.48)" id="9YObm5ClPoBmgy1kot7vz"  >
<path style="stroke: rgb(0,0,0); stroke-width: 1; stroke-dasharray: none; stroke-linecap: butt; stroke-dashoffset: 0; stroke-linejoin: miter; stroke-miterlimit: 4; fill: rgb(0,0,0); fill-rule: nonzero; opacity: 1;" vector-effect="non-scaling-stroke"  transform=" translate(0, 0)" d="M -181.81818 52.01434 L -181.40202000000002 -23.570079999999997 L -162.70072000000002 -54.479169999999996 L -149.19423 -61.49216 L -135.68774000000002 -94.47917 L -109.19423000000002 -114.47917 L -77.92208000000002 -128.76488 L -9.194230000000019 -134.47917 L 70.80576999999998 -124.86878000000002 L 90.80576999999998 -114.47917000000001 L 119.89667999999998 -103.64340000000001 L 165.09148999999996 -69.28436000000002 L 172.66810999999996 -51.40353000000002 L 178.89450999999997 -26.92621000000002 L 180.92922999999996 -1.0881200000000177 L 164.49565999999996 -39.68140000000002 L 164.49565999999996 -39.68140000000002 C 164.37023999999997 -39.97595000000002 164.49421999999996 -40.31732000000002 164.77942999999996 -40.462730000000015 C 165.06463999999997 -40.60814000000001 165.41373999999996 -40.507970000000014 165.57844999999998 -40.23345000000001 L 176.62337999999997 -21.825230000000012 L 181.81818999999996 25.520819999999986 L 168.63342999999995 -8.281800000000011 L 168.63342999999995 -8.281800000000011 C 168.52634999999995 -8.556330000000012 168.22064999999995 -8.696250000000012 167.94287999999995 -8.597860000000011 C 167.66510999999994 -8.499470000000011 167.51563999999993 -8.198330000000011 167.60522999999995 -7.917600000000012 L 181.81818999999996 36.61633999999999 L 181.81818999999996 54.79815999999998 L 169.43864999999997 27.18225999999998 L 169.43864999999997 27.18225999999998 C 169.35741999999996 27.00105999999998 169.14713999999998 26.91689999999998 168.96331999999995 26.992019999999982 C 168.77949999999996 27.067149999999984 168.68835999999996 27.274499999999982 168.75729999999996 27.46071999999998 L 175.44305999999995 45.52082999999998 L 174.35255999999995 65.26966999999999 L 176.62337999999994 76.87607999999999 L 165.16504999999995 130.3125 L 170.80577999999994 79.47348 L 150.80577999999994 25.520829999999997 L 130.80577999999994 -14.479170000000003 L 110.80577999999994 -34.47917 L 90.80577999999994 -47.79925 L 50.80577999999994 -54.47917 L 83.11688999999994 -54.47917 L 40.25974999999994 -62.08496 L 10.805779999999938 -54.47917 C 10.805779999999938 -54.47917 50.80577999999994 -67.98566 18.338249999999938 -62.79086 C -14.129280000000058 -57.596050000000005 -18.18180000000006 -54.47917 -18.18180000000006 -54.47917 L -41.558420000000055 -54.47917 C -41.558420000000055 -54.47917 -36.36361000000005 -63.570080000000004 -62.33764000000005 -54.47917 C -88.31167000000005 -45.38826 -109.19421000000006 -34.47917 -109.19421000000006 -34.47917 L -109.19421000000006 -42.604440000000004 L -129.19421000000006 -14.479170000000003 L -143.99940000000007 -2.344700000000003 L -149.19421000000006 18.434519999999996 L -163.99940000000007 45.52083 L -169.19421000000006 65.52082999999999 L -174.71145000000004 76.46248999999999 L -171.48779000000005 105.52082999999999 L -169.19421000000006 134.47915999999998 L -177.92206000000004 85.52082999999999 z" stroke-linecap="round" />
</g>
</svg>