<svg width="450" height="450" xmlns="http://www.w3.org/2000/svg">
 <defs>
  <clipPath id="a">
   <path d="m0,0l500,0l0,500l-500,0l0,-500z" id="svg_1"/>
  </clipPath>
 </defs>
 <g>
  <title>Layer 1</title>
  <g clip-path="url(#a)" id="svg_2" stroke="null">
   <path fill="#282848" d="m145.08727,72.9589l-26.40383,-12.13944s30.32315,-10.00972 62.50283,-10.64863c31.97339,-0.63892 48.88835,3.40756 48.88835,3.40756l1.44396,6.38918s7.01352,5.96323 12.99564,11.7135c-13.20192,-2.76864 -52.39511,-6.38918 -99.42694,1.27784l-0.00001,-0.00001z" display="block" id="svg_3" stroke="null"/>
   <path fill="#FFA9B8" d="m231.51857,59.96756s-61.47143,-9.3708 -99.63322,6.81513l-13.20192,-5.96323s50.95115,-18.7416 111.39118,-7.24107l1.44396,6.38918l0,-0.00001z" display="block" id="svg_4" stroke="null"/>
   <g display="block" id="svg_5" stroke="null">
    <path fill="#FFA9B8" d="m229.66205,53.79136l1.44396,5.96323s7.01352,5.96323 12.99564,11.7135c-13.20192,-2.76864 -52.39511,-6.38918 -99.42694,1.27784l-25.99127,-11.92647a173.27517,178.89705 0 0 0 -62.70911,35.56644c14.02704,6.38918 25.16616,14.48214 25.16616,14.48214c2.0628,12.99133 -4.1256,23.42699 -4.1256,23.42699a174.71913,180.38785 0 0 0 -29.70431,-29.39023c-16.29612,-12.35242 -27.22895,-14.90809 -27.22895,-14.90809c-15.88356,16.18592 -4.74444,67.29936 -4.74444,67.29936l0.41256,0a159.24813,164.4149 0 0 0 -7.2198,81.56853a115.51678,119.2647 0 0 0 25.99127,60.05829c7.83864,9.58377 17.32752,17.67673 28.26035,24.27888a173.68773,179.32299 0 0 0 55.28303,21.93619c4.74444,1.06486 9.69516,2.12973 14.85216,2.76864l8.2512,18.31565l35.68643,0l0,-14.26917a497.54726,513.69009 0 0 0 47.03183,-1.49081a276.41515,285.38338 0 0 0 53.83907,-10.64863l12.17052,26.40861l35.48015,0l0,-50.6875c28.05407,-21.93619 44.96903,-54.94695 44.96903,-102.22688c0,-89.02258 -60.02747,-145.46034 -140.68293,-159.72951l0,0.21297l-0.00001,0.00003z" id="svg_6" stroke="null"/>
    <path fill="#EE7A93" d="m359.20587,68.69944c-1.0314,-0.63892 -2.0628,0.63892 -1.23768,1.27784c6.1884,4.25945 9.2826,12.77836 5.77584,19.80646a15.26472,15.75998 0 0 1 -6.80724,6.81513c0,-4.25945 -1.65024,-7.87999 -5.157,-10.22269c-6.1884,-4.04648 -15.05844,2.55567 -10.314,9.58377c3.0942,4.47243 8.66376,4.89837 13.82076,2.98162a16.5024,17.03781 0 0 1 -2.0628,5.75026c-4.33188,8.09296 -14.85216,8.94485 -21.45312,3.19459c-0.82512,-0.85189 -1.85652,0.42595 -1.0314,1.27784c6.39468,5.75026 16.5024,5.75026 22.27824,-1.27784c2.0628,-2.55567 3.50676,-5.96323 3.71304,-9.58377a17.94636,18.52862 0 0 0 6.39468,-4.6854a16.5024,17.03781 0 0 0 -4.1256,-24.9178l0.20628,0l0,-0.00001zm-4.53816,28.75131c-2.0628,0.63892 -4.1256,1.06486 -6.39468,0.63892c-3.71304,-0.63892 -9.07632,-4.6854 -5.56956,-9.15782c3.91932,-5.11134 10.314,-0.85189 11.75796,3.83351c0.61884,1.49081 0.82512,2.98162 0.82512,4.47243l-0.61884,0.21297l0,-0.00001z" id="svg_7" stroke="null"/>
    <path fill="#EE7A93" d="m341.67207,114.91451c-4.33188,0 -8.66376,-1.70378 -11.96424,-4.47243c-0.61884,-0.63892 -0.82512,-1.27784 -0.82512,-2.12973c0,-0.42595 0.20628,-1.06486 0.61884,-1.49081c0.82512,-1.06486 2.47536,-1.27784 3.50676,-0.21297a12.99564,13.41728 0 0 0 10.72656,3.19459a11.75796,12.13944 0 0 0 9.2826,-8.51891c-5.36328,1.27784 -10.10772,-0.42595 -12.78936,-4.25945c-2.47536,-3.62054 -2.26908,-7.66702 0.41256,-10.64863c2.68164,-2.76864 7.63236,-4.25945 11.96424,-1.49081c2.88792,2.12973 4.95072,5.11134 5.56956,8.94485c1.85652,-1.27784 3.0942,-2.98162 4.1256,-4.89837c2.88792,-5.96323 0.61884,-13.63025 -5.157,-17.67673c-0.82512,-0.42595 -1.23768,-1.27784 -1.0314,-2.12973c0,-0.85189 0.61884,-1.70378 1.44396,-2.12973c0.61884,-0.42595 1.65024,-0.21297 2.47536,0.21297a18.77148,19.38051 0 0 1 8.2512,13.41728a17.12124,17.67673 0 0 1 -9.90144,18.7416a18.5652,19.16754 0 0 1 -4.1256,9.58377a16.5024,17.03781 0 0 1 -12.58308,5.96323l0,0.00001zm5.157,-26.62158c-1.0314,0 -2.0628,0.42595 -2.88792,1.70378c-1.0314,1.27784 -0.82512,2.12973 -0.61884,2.76864c0.82512,1.70378 3.30048,3.19459 5.157,3.62054c1.65024,0.21297 3.50676,0 5.157,-0.21297a10.314,10.64863 0 0 0 -0.61884,-2.76864a7.83864,8.09296 0 0 0 -5.56956,-5.11134l-0.61884,0l0,-0.00001zm-171.62493,-3.62054c25.16616,12.35242 36.71783,57.92857 36.71783,57.92857c-8.2512,11.28755 -21.45312,14.48214 -21.45312,14.48214c2.0628,-50.26155 -15.471,-71.98476 -15.471,-71.98476l0.20628,-0.42595l0.00001,0z" id="svg_8" stroke="null"/>
    <path fill="#282848" d="m170.4597,101.28426c9.07632,14.90809 5.157,50.6875 5.157,50.6875c-29.08547,0 -40.84343,-17.03781 -40.84343,-17.03781a99.01438,102.22688 0 0 1 35.68643,-33.64968l0,-0.00001zm-142.74573,3.62054c4.1256,1.49081 8.2512,4.25945 12.78936,8.09296a139.23897,143.75655 0 0 0 -15.471,22.78808a72.40427,74.75341 0 0 1 2.47536,-30.88104l0.20628,0z" id="svg_9" stroke="null"/>
    <path fill="#EE7A93" d="m117.85831,345.13797l0,21.29727l-35.06759,0l-19.80288,-43.02048a173.89401,179.53596 0 0 0 55.28303,21.72321l-0.41256,0zm148.72785,-1.91675l0,23.00105l-35.27387,0l-7.2198,-15.75998c14.85216,-1.27784 29.29175,-3.83351 42.69995,-7.24107l-0.20628,0z" id="svg_10" stroke="null"/>
    <path fill="#282848" d="m103.625,186.04739a9.48888,9.79674 0 1 1 0,19.80646a9.48888,9.79674 0 0 1 0,-19.80646zm-75.91103,0a9.48888,9.79674 0 1 1 0,19.80646a9.48888,9.79674 0 0 1 0,-19.80646zm238.87219,180.17488l0,12.77836l-29.70431,0l-5.77584,-12.77836l35.27387,0l0.20628,0zm-89.73178,0l0,12.77836l-29.70431,0l-5.77584,-12.77836l35.48015,0zm-136.35105,-253.22451a172.03749,177.61921 0 0 1 23.51592,26.19564c-18.5652,17.46376 -36.92411,11.92647 -36.92411,11.92647c-1.0314,-5.75026 -1.44396,-10.64863 -1.85652,-15.33403c4.33188,-8.30593 9.48888,-15.75998 15.26472,-22.78808l-0.00001,0z" id="svg_11" stroke="null"/>
    <path fill="#EE7A93" d="m81.14048,110.86803c2.0628,12.99133 -4.1256,23.42699 -4.1256,23.42699a174.10029,179.74894 0 0 0 -29.70431,-29.39023l8.66376,-8.51891c14.02704,6.38918 25.16616,14.48214 25.16616,14.48214l-0.00001,0.00001z" id="svg_12" stroke="null"/>
    <path fill="#282848" d="m325.37595,366.22227l0,12.77836l-29.70431,0l-5.77584,-12.77836l35.48015,0z" id="svg_13" stroke="null"/>
    <path fill="#EE7A93" d="m20.08161,89.78374c10.93284,-2.76864 24.34104,1.49081 35.89271,6.60215a137.17617,141.62683 0 0 0 -8.66376,8.51891c-16.29612,-12.35242 -27.22895,-14.90809 -27.22895,-14.90809l0,-0.21297z" id="svg_14" stroke="null"/>
    <path fill="#282848" d="m117.85831,366.22227l0,12.77836l-29.49803,0l-5.77584,-12.77836l35.27387,0z" id="svg_15" stroke="null"/>
    <path fill="#FFF" d="m25.85745,193.28846a2.47536,2.55567 0 1 1 -4.74444,0a2.47536,2.55567 0 0 1 4.74444,0zm75.91103,0a2.47536,2.55567 0 1 1 -4.74444,0a2.47536,2.55567 0 0 1 4.74444,0z" id="svg_16" stroke="null"/>
    <path fill="#EE7A93" d="m170.87226,86.1632a134.70081,139.07116 0 0 0 -49.50719,44.93723c-0.41256,1.06486 0.82512,2.12973 1.44396,1.27784c12.3768,-19.16754 29.29175,-34.50157 49.09463,-44.72426c0.82512,-0.63892 0,-2.12973 -1.0314,-1.49081zm-57.13955,197.63864a65.59703,67.72531 0 0 1 -42.08111,18.7416c-17.32752,1.49081 -37.13039,0 -52.39511,-9.79674a38.98691,40.25184 0 0 1 -15.67728,-51.11344c15.88356,-31.30698 62.70911,-32.79779 91.5883,-24.9178c13.82076,3.83351 26.19755,12.13944 29.91059,27.2605a41.25599,42.59453 0 0 1 -11.13912,39.61292l-0.20628,0.21297l0.00001,-0.00001z" id="svg_17" stroke="null"/>
    <path fill="#282848" d="m33.90237,258.24512a26.81639,27.68645 0 0 0 -3.0942,-7.87999c-1.85652,-3.62054 -7.01352,-1.06486 -6.80724,2.55567l0,1.70378c-0.41256,5.75026 0.82512,10.64863 3.50676,15.75998c0,0.42595 0.41256,0.63892 0.82512,0.85189l0.41256,1.06486c1.44396,2.76864 6.60096,1.91675 6.80724,-1.49081c0.41256,-4.25945 -0.20628,-8.51891 -1.65024,-12.77836l0,0.21297l0,0.00001zm52.18883,1.91675c0.61884,-2.55567 0.82512,-5.32432 0.61884,-8.30593c-0.20628,-4.25945 -5.98212,-4.25945 -7.2198,-0.85189l-0.41256,0.63892a28.87919,29.81617 0 0 0 -4.1256,16.61187l0.41256,1.27784l0,1.06486c0.20628,3.19459 5.36328,4.6854 6.80724,1.70378a28.87919,29.81617 0 0 0 3.91932,-12.13944l0,-0.00001z" id="svg_18" stroke="null"/>
    <path fill="#EE7A93" d="m176.6481,241.20731a16.91496,17.46376 0 0 0 -28.05407,9.58377c-2.88792,17.46376 16.91496,25.55672 29.70431,17.67673c11.75796,-7.24107 7.83864,-21.51024 -1.65024,-27.2605zm-89.11294,-159.51653l-17.32752,11.7135c-0.82512,0.63892 0,2.12973 0.82512,1.27784l17.32752,-11.7135c0.82512,-0.63892 0,-2.12973 -0.82512,-1.27784zm28.87919,-14.90809l-20.42172,10.43566c-0.82512,0.42595 -0.41256,1.91675 0.61884,1.49081l20.42172,-10.64863c0.82512,-0.21297 0.20628,-1.70378 -0.61884,-1.27784zm-11.3454,12.77836l-16.5024,9.3708c-1.0314,0.42595 0,1.70378 0.82512,1.27784l16.5024,-9.3708c0.82512,-0.42595 0,-1.70378 -0.82512,-1.27784zm256.81855,134.59873a129.95637,134.17278 0 0 1 -8.66376,36.84427c-0.41256,0.85189 1.0314,1.49081 1.44396,0.63892a131.40033,135.66359 0 0 0 8.66376,-37.05725c0,-1.06486 -1.44396,-1.27784 -1.65024,-0.42595l0.20628,0l0,0.00001zm-9.69516,44.51129l-14.4396,25.55672c-0.61884,0.85189 0.82512,1.70378 1.23768,0.85189l14.4396,-25.55672c0.61884,-1.06486 -0.61884,-1.70378 -1.23768,-0.85189zm-1.65024,-20.44538l-8.66376,20.87132c-0.41256,0.85189 1.0314,1.49081 1.44396,0.63892l8.45748,-20.87132c0.41256,-0.85189 -0.82512,-1.49081 -1.23768,-0.63892zm-34.86131,82.84637l0,15.12106c0,1.06486 1.44396,0.85189 1.44396,0l0,-15.33403c0,-1.06486 -1.44396,-0.85189 -1.44396,0l0,0.21297zm0.82512,24.06591l-0.41256,11.50052c0,1.06486 1.44396,0.85189 1.65024,0l0.41256,-11.50052c0,-1.06486 -1.44396,-1.06486 -1.65024,0zm-5.157,-11.50052c0,-1.06486 -1.65024,-0.85189 -1.65024,0l1.23768,15.33403c0,1.06486 1.65024,0.85189 1.44396,0l-1.0314,-15.33403zm-167.29305,18.52862l-5.56956,-14.48214c-0.41256,-1.06486 -2.0628,-0.42595 -1.44396,0.42595l5.56956,14.48214c0.20628,1.06486 1.65024,0.42595 1.44396,-0.42595zm3.50676,10.86161l-1.65024,-8.09296c-0.20628,-0.85189 -1.65024,-0.42595 -1.44396,0.63892l1.65024,8.09296c0,0.85189 1.65024,0.42595 1.44396,-0.63892zm5.77584,-5.75026l-3.71304,-12.35242c-0.41256,-1.06486 -1.85652,-0.63892 -1.44396,0.42595l3.71304,12.35242c0.20628,0.85189 1.65024,0.42595 1.44396,-0.63892l0,0.21297zm-76.73615,-34.71455a37.13039,38.33508 0 0 1 -13.20192,-11.28755c-0.61884,-0.85189 -2.0628,0 -1.23768,0.85189c3.71304,5.11134 8.2512,9.15782 14.02704,11.92647c0.82512,0.42595 1.44396,-0.85189 0.61884,-1.49081l-0.20628,0zm25.57872,12.99133l-17.32752,-8.73188c-0.82512,-0.63892 -1.44396,0.85189 -0.61884,1.27784l17.32752,8.94485c0.82512,0.42595 1.44396,-1.06486 0.61884,-1.49081zm-7.42608,-11.7135l-15.26472,-8.94485c-0.82512,-0.63892 -1.44396,0.85189 -0.61884,1.27784l15.26472,8.94485c0.82512,0.63892 1.44396,-0.85189 0.61884,-1.27784zm225.67028,-212.12078a90.76318,93.70798 0 0 0 -28.46663,-23.63997c-0.82512,-0.63892 -1.44396,0.85189 -0.61884,1.27784a88.70038,91.57825 0 0 1 27.84779,23.21402c0.61884,0.85189 1.85652,0 1.23768,-0.85189zm21.24684,26.40861l-13.61448,-18.10268c-0.61884,-0.85189 -1.85652,0 -1.23768,0.85189l13.61448,18.10268c0.61884,0.85189 1.85652,0 1.23768,-0.85189zm-18.35892,-13.20431l-16.29612,-13.41728c-0.82512,-0.63892 -1.65024,0.63892 -1.0314,1.27784l16.5024,13.20431c0.61884,0.63892 1.65024,-0.42595 0.82512,-1.06486l0,-0.00001zm27.22895,32.15887l-5.157,-11.50052c-0.41256,-0.85189 -1.85652,-0.42595 -1.44396,0.63892l5.157,11.50052c0.41256,0.85189 2.0628,0.42595 1.44396,-0.63892z" id="svg_19" stroke="null"/>
   </g>
   <g display="block" id="svg_20" stroke="null">
    <path fill="#FFDF77" d="m442.54297,359.40714l0,17.67673l-85.60618,0l0,-17.67673s15.05844,9.79674 42.69995,9.79674c27.84779,0 42.90623,-9.79674 42.90623,-9.79674z" id="svg_21" stroke="null"/>
    <path fill="#ECC249" d="m357.14307,359.40714l85.3999,0s-15.05844,9.79674 -42.90623,9.79674c-27.64151,0 -42.69995,-9.79674 -42.69995,-9.79674l0.20628,0z" id="svg_22" stroke="null"/>
    <path fill="#F4B349" d="m442.54297,377.08388l0,17.67673l-85.60618,0l0,-17.67673s15.05844,9.79674 42.69995,9.79674c27.84779,0 42.90623,-9.79674 42.90623,-9.79674z" id="svg_23" stroke="null"/>
    <path fill="#ECC249" d="m357.14307,377.08388l85.3999,0s-15.05844,9.79674 -42.90623,9.79674c-27.64151,0 -42.69995,-9.79674 -42.69995,-9.79674l0.20628,0z" id="svg_24" stroke="null"/>
    <path fill="#FFEA92" d="m435.11689,363.24065c0,-1.06486 1.44396,-1.06486 1.44396,0l-1.0314,13.84322c0,1.06486 -1.44396,0.85189 -1.44396,0l1.0314,-13.84322zm-10.314,2.76864c0,-0.85189 1.65024,-0.85189 1.65024,0l-0.61884,10.64863c0,1.06486 -1.44396,1.06486 -1.44396,0l0.41256,-10.64863zm-8.66376,2.76864c0,-0.85189 1.44396,-0.85189 1.44396,0l0,7.24107c0,1.06486 -1.65024,1.06486 -1.65024,0l0,-7.24107l0.20628,0zm-9.48888,0.85189c0,-0.85189 1.44396,-0.85189 1.44396,0l0,6.81513c-0.20628,1.06486 -1.65024,1.06486 -1.65024,0l0,-6.81513l0.20628,0zm-7.63236,0l0,7.24107c0,0.85189 -1.65024,0.85189 -1.65024,0l0,-7.24107c0,-1.06486 1.65024,-0.85189 1.65024,0zm-11.55168,-0.63892c0,-1.06486 1.65024,-0.85189 1.65024,0l-0.20628,7.66702c0,1.06486 -1.65024,0.85189 -1.65024,0l0.20628,-7.66702zm-7.63236,-0.85189l0,8.30593c0,0.85189 -1.23768,0.85189 -1.23768,0l-0.20628,-8.51891c0,-0.85189 1.44396,-0.85189 1.44396,0.21297l0,0.00001zm-8.87004,-1.91675l0,9.58377c0,1.06486 -1.23768,0.85189 -1.23768,0l-0.41256,-9.58377c0,-1.06486 1.44396,-0.85189 1.65024,0zm-8.45748,-3.62054l0.61884,14.90809c0,0.85189 -1.44396,0.63892 -1.44396,-0.21297l-0.61884,-14.90809c0,-0.85189 1.44396,-0.85189 1.44396,0l0,0.21297z" id="svg_25" stroke="null"/>
    <path fill="#FFD266" d="m438.00481,379.85252c0,-0.85189 1.65024,-0.85189 1.44396,0l0,13.84322c0,1.06486 -1.65024,0.85189 -1.65024,0l0.20628,-13.84322zm-9.90144,4.04648c0,-1.06486 1.44396,-1.06486 1.44396,0l0,10.64863c0,1.06486 -1.65024,0.85189 -1.65024,0l0.20628,-10.64863zm-9.48888,2.98162l0.41256,7.87999c0,1.06486 -1.65024,0.85189 -1.65024,0l0,-8.09296c-0.20628,-0.85189 1.23768,-0.85189 1.23768,0l0,0.21297zm-9.90144,0.85189l0,6.60215c0,1.06486 -1.44396,0.85189 -1.44396,0l0,-6.81513c0,-0.85189 1.44396,-0.85189 1.44396,0l0,0.21297l0,0.00001zm-9.48888,0l0,6.38918c0,1.06486 -1.44396,0.85189 -1.44396,0l0,-6.38918c0,-1.06486 1.44396,-1.06486 1.44396,0zm-8.2512,-0.63892l0,6.38918c0,1.06486 -1.44396,1.06486 -1.44396,0l0,-6.38918c0,-1.06486 1.44396,-0.85189 1.44396,0zm-10.52028,-0.21297c0,-1.06486 1.65024,-0.85189 1.65024,0l-0.20628,7.45404c0,0.85189 -1.44396,0.85189 -1.44396,0l0,-7.45404zm-9.07632,-3.40756l0,10.00972c0,0.85189 -1.23768,0.85189 -1.23768,0l-0.41256,-10.22269c0,-1.06486 1.65024,-0.85189 1.65024,0l0,0.21297zm-10.314,-3.62054l1.23768,14.48214c0,1.06486 -1.44396,1.27784 -1.44396,0.21297l-1.23768,-14.26917c0,-1.06486 1.23768,-1.27784 1.44396,-0.42595l0,0.00001z" id="svg_26" stroke="null"/>
    <path fill="#FFDF77" d="m349.92327,324.05368l0,17.67673l85.3999,0l0,-17.67673s-14.85216,9.79674 -42.69995,9.79674s-42.69995,-9.79674 -42.69995,-9.79674z" id="svg_27" stroke="null"/>
    <path fill="#ECC249" d="m435.32317,324.05368l-85.3999,0s14.85216,9.79674 42.69995,9.79674s42.69995,-9.79674 42.69995,-9.79674z" id="svg_28" stroke="null"/>
    <path fill="#F4B349" d="m349.92327,341.73041l0,17.67673l85.3999,0l0,-17.67673s-14.85216,9.79674 -42.69995,9.79674s-42.69995,-9.79674 -42.69995,-9.79674z" id="svg_29" stroke="null"/>
    <path fill="#ECC249" d="m435.32317,341.73041l-85.3999,0s14.85216,9.79674 42.69995,9.79674s42.69995,-9.79674 42.69995,-9.79674z" id="svg_30" stroke="null"/>
    <path fill="#FFEA92" d="m357.14307,327.67422c0,-0.85189 -1.44396,-0.85189 -1.44396,0l1.0314,14.0562c0,0.85189 1.44396,0.85189 1.44396,0l-0.82512,-14.0562l-0.20628,0zm10.314,2.98162c0,-1.06486 -1.44396,-0.85189 -1.44396,0l0.41256,10.64863c0,1.06486 1.44396,1.06486 1.44396,0l-0.41256,-10.64863zm8.87004,2.76864c0,-1.06486 -1.65024,-0.85189 -1.65024,0l0,7.24107c0,1.06486 1.65024,0.85189 1.65024,0l0,-7.24107zm9.2826,0.85189c0,-1.06486 -1.44396,-0.85189 -1.44396,0l0.20628,6.81513c0,1.06486 1.65024,0.85189 1.44396,0l0,-6.81513l-0.20628,0zm7.83864,0l0,7.0281c0,1.06486 1.44396,1.06486 1.44396,0l0,-7.45404c0,-0.85189 -1.44396,-0.85189 -1.44396,0.21297l0,0.21297zm11.3454,-0.63892c0,-1.06486 -1.44396,-0.85189 -1.44396,0l0,7.66702c0,0.85189 1.65024,0.85189 1.65024,0l-0.20628,-7.66702zm7.63236,-0.85189l0,8.09296c0,1.06486 1.44396,1.06486 1.44396,0l0,-8.30593c0,-0.85189 -1.44396,-0.85189 -1.44396,0l0,0.21297zm9.07632,-1.91675l-0.20628,9.58377c0,1.06486 1.44396,0.85189 1.44396,0l0.20628,-9.58377c0,-1.06486 -1.44396,-0.85189 -1.44396,0zm8.2512,-3.62054l-0.61884,14.69511c0,1.06486 1.44396,0.85189 1.44396,0l0.61884,-14.90809c0,-1.06486 -1.44396,-0.85189 -1.44396,0l0,0.21297l0,0.00001z" id="svg_31" stroke="null"/>
    <path fill="#FFD266" d="m354.25515,344.49906c0,-1.06486 -1.44396,-0.85189 -1.44396,0l0.20628,13.84322c0,1.06486 1.44396,0.85189 1.44396,0l0,-13.84322l-0.20628,0zm9.90144,3.83351c0,-0.85189 -1.44396,-0.85189 -1.44396,0l0,10.64863c0,1.06486 1.65024,1.06486 1.65024,0l0,-10.64863l-0.20628,0zm9.48888,3.19459l-0.20628,7.87999c0,1.06486 1.44396,0.85189 1.44396,0l0.20628,-8.09296c0,-1.06486 -1.44396,-0.85189 -1.44396,0l0,0.21297zm9.90144,0.85189l0,6.60215c0,1.06486 1.65024,0.85189 1.65024,0l0,-6.81513c0,-1.06486 -1.65024,-0.85189 -1.65024,0l0,0.21297l0,0.00001zm9.48888,0l0,6.38918c0,1.06486 1.44396,0.85189 1.44396,0l0,-6.38918c0,-1.27784 -1.44396,-1.06486 -1.44396,0zm8.45748,-0.63892l0,6.38918c0,1.06486 1.44396,0.85189 1.44396,0l0,-6.38918c0,-1.06486 -1.44396,-1.06486 -1.44396,0zm10.314,-0.21297c0,-1.06486 -1.44396,-0.85189 -1.44396,0l0,7.24107c0,1.06486 1.65024,1.06486 1.65024,0l-0.20628,-7.24107zm9.2826,-3.62054l-0.41256,10.22269c0,0.85189 1.65024,0.85189 1.65024,-0.21297l0,-10.00972c0,-1.06486 -1.23768,-0.85189 -1.23768,0zm10.314,-3.40756l-1.23768,14.48214c0,0.85189 1.23768,1.27784 1.44396,0.21297l1.23768,-14.26917c0,-1.06486 -1.44396,-1.27784 -1.65024,-0.42595l0.20628,0l0,0.00001zm-10.314,-20.65835a83.3371,86.04096 0 0 1 -59.82119,-0.21297c-0.61884,-0.42595 -1.44396,1.06486 -0.41256,1.49081c19.5966,7.66702 41.25599,7.87999 60.85259,0.21297c1.0314,-0.42595 0.41256,-1.91675 -0.41256,-1.49081l-0.20628,0z" id="svg_32" stroke="null"/>
    <path fill="#FFDF77" d="m351.77979,182.63982l0,17.8897l85.3999,0l0,-17.8897s-14.85216,9.79674 -42.69995,9.79674s-42.69995,-9.79674 -42.69995,-9.79674z" id="svg_33" stroke="null"/>
    <path fill="#ECC249" d="m437.17969,182.63982l-85.3999,0s14.85216,10.00972 42.69995,10.00972s42.69995,-9.79674 42.69995,-9.79674l0,-0.21297l0,-0.00001z" id="svg_34" stroke="null"/>
    <path fill="#F4B349" d="m351.77979,200.52953l0,17.67673l85.3999,0l0,-17.67673s-14.85216,9.58377 -42.69995,9.58377s-42.69995,-9.58377 -42.69995,-9.58377z" id="svg_35" stroke="null"/>
    <path fill="#ECC249" d="m437.17969,200.52953l-85.3999,0s14.85216,9.58377 42.69995,9.58377s42.69995,-9.58377 42.69995,-9.58377z" id="svg_36" stroke="null"/>
    <path fill="#FFEA92" d="m359.20587,186.47333c0,-1.06486 -1.65024,-0.85189 -1.44396,0l0.82512,14.0562c0,0.85189 1.65024,0.85189 1.44396,-0.21297l-0.82512,-13.84322l0,-0.00001zm10.314,2.98162c0,-1.06486 -1.65024,-0.85189 -1.65024,0l0.41256,10.64863c0,1.06486 1.65024,0.85189 1.44396,0l-0.41256,-10.64863l0.20628,0zm8.66376,2.76864c0,-1.06486 -1.44396,-0.85189 -1.44396,0l0,7.24107c0,1.06486 1.44396,0.85189 1.44396,0l0,-7.24107zm9.48888,0.85189c0,-1.06486 -1.65024,-0.85189 -1.65024,0l0.20628,6.81513c0,1.06486 1.65024,0.85189 1.65024,0l-0.20628,-6.81513zm7.63236,0l0,7.0281c0,1.06486 1.44396,0.85189 1.44396,0l0,-7.24107c0,-0.85189 -1.44396,-0.85189 -1.44396,0l0,0.21297zm11.3454,-0.63892c0,-1.06486 -1.44396,-1.06486 -1.44396,0l0,7.66702c0,0.85189 1.65024,0.85189 1.65024,0l0,-7.66702l-0.20628,0zm7.63236,-0.85189l0,8.09296c0,1.06486 1.44396,0.85189 1.44396,0l0,-8.51891c0,-1.06486 -1.44396,-0.85189 -1.44396,0l0,0.42595zm9.07632,-1.91675l-0.20628,9.58377c0,0.85189 1.44396,0.85189 1.44396,0l0.20628,-9.79674c0,-0.85189 -1.44396,-0.85189 -1.44396,0.21297zm8.2512,-3.83351l-0.61884,14.90809c0,1.06486 1.44396,0.85189 1.65024,0c0,-5.11134 0.41256,-10.00972 0.61884,-14.90809c0,-1.06486 -1.44396,-0.85189 -1.65024,0z" id="svg_37" stroke="null"/>
    <path fill="#FFD266" d="m356.11167,203.29817c0,-1.06486 -1.44396,-0.85189 -1.44396,0l0.20628,13.84322c0,0.85189 1.65024,0.85189 1.44396,0l0,-13.84322l-0.20628,0zm9.90144,3.83351c0,-1.06486 -1.44396,-0.85189 -1.44396,0l0.20628,10.64863c0,1.06486 1.44396,1.06486 1.44396,0l0,-10.64863l-0.20628,0zm9.69516,3.19459l-0.41256,7.87999c0,1.06486 1.44396,0.85189 1.44396,0l0.20628,-8.09296c0,-1.06486 -1.44396,-0.85189 -1.44396,0l0.20628,0.21297zm9.90144,0.63892l0,6.81513c0,1.06486 1.44396,0.85189 1.44396,0l0,-6.81513c0,-1.06486 -1.44396,-0.85189 -1.44396,0zm9.2826,0l0,6.38918c0,1.06486 1.44396,1.06486 1.44396,0l0,-6.38918c0,-1.06486 -1.44396,-0.85189 -1.44396,0zm8.45748,-0.63892l0,6.60215c0,1.06486 1.44396,0.85189 1.44396,0l0,-6.38918c0,-1.06486 -1.44396,-1.06486 -1.44396,0l0,-0.21297zm10.314,0c0,-1.06486 -1.44396,-1.06486 -1.44396,0l0,7.24107c0,1.06486 1.65024,0.85189 1.65024,0l0,-7.24107l-0.20628,0zm9.2826,-3.62054l-0.20628,10.00972c0,1.06486 1.44396,0.85189 1.44396,0l0.20628,-10.00972c0,-1.06486 -1.44396,-1.06486 -1.44396,0zm10.314,-3.40756l-1.23768,14.48214c0,0.85189 1.44396,1.27784 1.44396,0.21297l1.23768,-14.48214c0,-0.85189 -1.44396,-1.27784 -1.44396,-0.21297zm-10.10772,-20.65835a83.3371,86.04096 0 0 1 -59.82119,-0.21297c-0.82512,-0.42595 -1.44396,1.06486 -0.61884,1.27784c19.5966,7.87999 41.25599,8.09296 61.05887,0.42595c0.82512,-0.42595 0.20628,-1.91675 -0.61884,-1.49081l0,-0.00001z" id="svg_38" stroke="null"/>
    <path fill="#FFDF77" d="m433.46665,218.63221l0,17.67673l-85.3999,0l0,-17.67673s14.85216,9.79674 42.69995,9.79674s42.69995,-9.79674 42.69995,-9.79674z" id="svg_39" stroke="null"/>
    <path fill="#ECC249" d="m348.06675,218.63221l85.3999,0s-14.85216,9.79674 -42.69995,9.79674s-42.69995,-9.79674 -42.69995,-9.79674z" id="svg_40" stroke="null"/>
    <path fill="#F4B349" d="m433.46665,236.30894l0,17.67673l-85.3999,0l0,-17.67673s14.85216,9.58377 42.69995,9.58377s42.69995,-9.58377 42.69995,-9.58377z" id="svg_41" stroke="null"/>
    <path fill="#ECC249" d="m348.06675,236.30894l85.3999,0s-14.85216,9.58377 -42.69995,9.58377s-42.69995,-9.58377 -42.69995,-9.58377z" id="svg_42" stroke="null"/>
    <path fill="#FFEA92" d="m426.04057,222.25274c0,-1.06486 1.65024,-0.85189 1.44396,0l-0.82512,14.0562c0,0.85189 -1.65024,0.85189 -1.44396,-0.21297l0.82512,-13.84322l0,-0.00001zm-10.10772,2.98162c0,-1.06486 1.44396,-0.85189 1.44396,0l-0.41256,10.64863c0,1.06486 -1.65024,0.85189 -1.44396,0l0.41256,-10.64863zm-8.87004,2.76864c0,-1.06486 1.44396,-0.85189 1.44396,0l0,7.24107c0,1.06486 -1.44396,0.85189 -1.44396,0l0,-7.24107zm-9.48888,0.85189c0,-1.06486 1.65024,-0.85189 1.65024,0l-0.20628,6.81513c0,1.06486 -1.65024,0.85189 -1.65024,0l0.20628,-6.81513zm-7.42608,0l0,7.0281c0,1.06486 -1.65024,0.85189 -1.65024,0l0,-7.24107c0,-0.85189 1.44396,-0.85189 1.44396,0l0.20628,0.21297zm-11.55168,-0.63892c0,-1.06486 1.44396,-1.06486 1.44396,0l0,7.66702c-0.20628,0.85189 -1.65024,0.85189 -1.65024,0l0,-7.66702l0.20628,0zm-7.63236,-0.85189l0,8.09296c0,1.06486 -1.44396,0.85189 -1.44396,0l0,-8.30593c0,-1.06486 1.23768,-0.85189 1.44396,0l0,0.21297zm-9.07632,-1.91675l0.20628,9.58377c0,0.85189 -1.44396,0.85189 -1.44396,0l-0.20628,-9.79674c0,-0.85189 1.44396,-0.85189 1.44396,0.21297zm-8.45748,-3.83351l0.82512,14.90809c0,1.06486 -1.65024,0.85189 -1.65024,0c0,-5.11134 -0.41256,-10.00972 -0.61884,-14.90809c0,-1.06486 1.44396,-0.85189 1.44396,0z" id="svg_43" stroke="null"/>
    <path fill="#FFD266" d="m429.13477,239.07758c0,-1.06486 1.44396,-0.85189 1.44396,0l-0.20628,13.84322c0,0.85189 -1.65024,0.85189 -1.65024,0l0.41256,-13.84322zm-10.10772,3.83351c0,-1.06486 1.65024,-0.85189 1.65024,0l-0.20628,10.64863c0,1.06486 -1.65024,1.06486 -1.44396,0l0,-10.64863zm-9.2826,2.98162l0,8.09296c0.20628,1.06486 -1.23768,0.85189 -1.23768,0l-0.20628,-8.09296c0,-1.06486 1.44396,-0.85189 1.44396,0zm-10.10772,0.85189l0,6.81513c0,1.06486 -1.44396,0.85189 -1.44396,0l0,-7.0281c0,-1.06486 1.44396,-0.85189 1.44396,0l0,0.21297zm-9.48888,0l0.20628,6.38918c0,1.06486 -1.44396,1.06486 -1.44396,0l0,-6.38918c0,-1.06486 1.44396,-0.85189 1.44396,0l-0.20628,0zm-8.2512,-0.42595l0,6.38918c0,1.06486 -1.44396,0.85189 -1.44396,0l0,-6.38918c0,-1.06486 1.44396,-1.06486 1.44396,0zm-10.314,-0.21297c0,-1.06486 1.44396,-1.06486 1.44396,0l0,7.24107c0,1.06486 -1.65024,0.85189 -1.65024,0l0,-7.24107l0.20628,0zm-9.2826,-3.62054l0.20628,10.00972c0,1.06486 -1.44396,0.85189 -1.44396,0l-0.20628,-10.00972c0,-1.06486 1.44396,-1.06486 1.44396,0zm-10.314,-3.40756l1.23768,14.48214c0,0.85189 -1.44396,1.27784 -1.44396,0.21297l-1.23768,-14.48214c0,-0.85189 1.44396,-1.27784 1.44396,-0.21297z" id="svg_44" stroke="null"/>
    <path fill="#FFDF77" d="m360.44355,253.34675l0,17.67673l85.3999,0l0,-17.67673s-14.85216,9.79674 -42.69995,9.79674s-42.69995,-9.79674 -42.69995,-9.79674z" id="svg_45" stroke="null"/>
    <path fill="#ECC249" d="m445.84345,253.34675l-85.3999,0s14.85216,9.79674 42.69995,9.79674s42.69995,-9.79674 42.69995,-9.79674z" id="svg_46" stroke="null"/>
    <path fill="#F4B349" d="m360.44355,271.02348l0,17.67673l85.3999,0l0,-17.67673s-14.85216,9.79674 -42.69995,9.79674s-42.69995,-9.79674 -42.69995,-9.79674z" id="svg_47" stroke="null"/>
    <path fill="#ECC249" d="m445.84345,271.02348l-85.3999,0s14.85216,9.79674 42.69995,9.79674s42.69995,-9.79674 42.69995,-9.79674z" id="svg_48" stroke="null"/>
    <path fill="#FFEA92" d="m367.86962,257.18026c0,-1.27784 -1.65024,-1.06486 -1.44396,0l0.82512,13.84322c0,0.85189 1.65024,0.85189 1.44396,0l-0.82512,-14.0562l0,0.21297l0,0.00001zm10.10772,2.76864c0,-1.06486 -1.44396,-0.85189 -1.44396,0l0.41256,10.64863c0,1.06486 1.44396,0.85189 1.44396,0l-0.41256,-10.64863zm8.87004,2.76864c0,-1.06486 -1.44396,-0.85189 -1.44396,0l0,7.24107c0,1.06486 1.44396,0.85189 1.44396,0l0,-7.24107zm9.48888,0.85189c0,-1.06486 -1.65024,-0.85189 -1.65024,0l0.20628,6.81513c0,1.06486 1.65024,0.85189 1.65024,0l-0.20628,-6.81513zm7.63236,0l0,7.0281c0,1.06486 1.44396,0.85189 1.44396,0l0,-7.24107c0,-0.85189 -1.44396,-0.85189 -1.44396,0l0,0.21297zm11.3454,-0.63892c0,-1.06486 -1.44396,-0.85189 -1.44396,0l0,7.66702c0,0.85189 1.65024,0.85189 1.65024,0l0,-7.66702l-0.20628,0zm7.83864,-0.85189l-0.20628,8.09296c0,1.06486 1.44396,0.85189 1.44396,0l0,-8.30593c0,-1.06486 -1.44396,-0.85189 -1.44396,0l0.20628,0.21297zm8.87004,-1.91675l-0.20628,9.58377c0,0.85189 1.44396,0.85189 1.44396,0l0.20628,-9.58377c0,-1.06486 -1.44396,-1.06486 -1.44396,0zm8.2512,-3.83351c0,5.11134 -0.41256,10.00972 -0.61884,14.90809c0,1.06486 1.44396,0.85189 1.65024,0c0,-5.11134 0.41256,-10.00972 0.61884,-14.90809c0,-1.06486 -1.44396,-0.85189 -1.65024,0z" id="svg_49" stroke="null"/>
    <path fill="#FFD266" d="m364.77542,273.79213c0,-1.06486 -1.44396,-0.85189 -1.44396,0l0.20628,13.84322c0,0.85189 1.65024,0.85189 1.44396,0l0,-13.84322l-0.20628,0zm9.90144,3.83351c0,-0.85189 -1.44396,-0.85189 -1.44396,0l0.20628,10.64863c0,1.06486 1.44396,1.06486 1.44396,0l0,-10.64863l-0.20628,0zm9.48888,2.98162l-0.20628,8.09296c0,1.06486 1.44396,0.85189 1.44396,0l0.20628,-8.09296c0,-1.06486 -1.44396,-0.85189 -1.44396,0zm10.10772,1.06486l0,6.60215c0,1.06486 1.44396,0.85189 1.44396,0l0,-6.81513c0,-1.06486 -1.44396,-0.85189 -1.44396,0l0,0.21297l0,0.00001zm9.2826,0l0,6.38918c0,0.85189 1.44396,0.85189 1.44396,0l0,-6.60215c0,-1.06486 -1.44396,-0.85189 -1.44396,0l0,0.21297zm8.45748,-0.63892l0,6.38918c0,1.06486 1.44396,0.85189 1.44396,0l0,-6.38918c0,-1.06486 -1.44396,-1.06486 -1.44396,0zm10.314,-0.42595c0,-0.85189 -1.44396,-0.63892 -1.44396,0.21297l0,7.24107c0,1.06486 1.65024,0.85189 1.65024,0l0,-7.45404l-0.20628,0zm9.07632,-3.40756l0,10.00972c0,1.06486 1.44396,1.06486 1.44396,0l0.20628,-10.00972c0,-1.06486 -1.44396,-1.06486 -1.44396,0l-0.20628,0zm10.314,-3.40756l-1.0314,14.48214c0,0.85189 1.23768,1.27784 1.44396,0.21297l1.23768,-14.26917c0,-1.06486 -1.44396,-1.49081 -1.44396,-0.42595l-0.20628,0l0,0.00001z" id="svg_50" stroke="null"/>
    <path fill="#FFDF77" d="m434.29177,288.48724l0,17.67673l-85.60618,0l0,-17.67673s15.05844,9.79674 42.90623,9.79674c27.64151,0 42.69995,-9.79674 42.69995,-9.79674z" id="svg_51" stroke="null"/>
    <path fill="#ECC249" d="m348.89187,288.48724l85.3999,0s-15.05844,9.79674 -42.69995,9.79674c-27.84779,0 -42.90623,-9.79674 -42.90623,-9.79674l0.20628,0z" id="svg_52" stroke="null"/>
    <path fill="#F4B349" d="m434.29177,306.16398l0,17.67673l-85.60618,0l0,-17.67673s15.05844,9.79674 42.90623,9.79674c27.64151,0 42.69995,-9.79674 42.69995,-9.79674z" id="svg_53" stroke="null"/>
    <path fill="#ECC249" d="m348.89187,306.16398l85.3999,0s-15.05844,9.79674 -42.69995,9.79674c-27.84779,0 -42.90623,-9.79674 -42.90623,-9.79674l0.20628,0z" id="svg_54" stroke="null"/>
    <path fill="#FFEA92" d="m426.86569,292.32075c0,-1.06486 1.44396,-1.06486 1.44396,0l-0.82512,13.84322c0,1.06486 -1.65024,0.85189 -1.65024,0l1.0314,-13.84322zm-10.314,2.76864c0,-0.85189 1.65024,-0.85189 1.65024,0l-0.41256,10.64863c0,1.06486 -1.65024,1.06486 -1.65024,0l0.41256,-10.64863zm-8.66376,2.76864c0,-0.85189 1.44396,-0.85189 1.44396,0.21297l0,7.0281c0,1.06486 -1.65024,1.06486 -1.65024,0l0,-7.45404l0.20628,0.21297zm-9.48888,0.85189c0,-0.85189 1.44396,-0.85189 1.44396,0l0,6.81513c0,1.06486 -1.65024,1.06486 -1.65024,0l0.20628,-6.81513zm-7.63236,0l0,7.24107c0,0.85189 -1.44396,0.85189 -1.44396,0l0,-7.24107c0,-1.06486 1.44396,-0.85189 1.44396,0zm-11.55168,-0.63892c0,-1.06486 1.65024,-0.85189 1.65024,0l-0.20628,7.66702c0,1.06486 -1.65024,0.85189 -1.44396,0l0,-7.66702zm-7.63236,-0.85189l0,8.30593c0.20628,0.85189 -1.23768,0.85189 -1.23768,0l-0.20628,-8.51891c0,-0.85189 1.44396,-0.85189 1.44396,0.21297l0,0.00001zm-8.87004,-1.70378l0,9.3708c0.20628,1.06486 -1.23768,0.85189 -1.23768,0l-0.41256,-9.58377c0,-1.06486 1.65024,-0.85189 1.65024,0l0,0.21297zm-8.45748,-3.83351l0.61884,14.90809c0,0.85189 -1.44396,0.63892 -1.44396,-0.21297l-0.61884,-14.90809c0,-0.85189 1.44396,-0.85189 1.44396,0l0,0.21297z" id="svg_55" stroke="null"/>
    <path fill="#FFD266" d="m429.75361,308.93262c0,-0.85189 1.65024,-0.85189 1.65024,0l-0.41256,13.84322c0,1.06486 -1.44396,0.85189 -1.44396,0l0.20628,-13.84322zm-9.90144,4.04648c0,-1.06486 1.65024,-0.85189 1.44396,0l0,10.64863c0,1.06486 -1.65024,0.85189 -1.65024,0l0.20628,-10.64863zm-9.2826,2.98162l0,7.87999c0,1.06486 -1.44396,0.85189 -1.44396,0l0,-8.09296c0,-0.85189 1.23768,-0.85189 1.44396,0.21297zm-10.10772,0.85189l0,6.60215c0,1.06486 -1.44396,1.06486 -1.44396,0l0,-6.81513c0,-0.85189 1.44396,-0.85189 1.44396,0l0,0.21297l0,0.00001zm-9.48888,0l0,6.38918c0,1.06486 -1.23768,0.85189 -1.44396,0l0,-6.38918c0,-1.06486 1.44396,-1.06486 1.44396,0zm-8.2512,-0.63892l0,6.38918c0,1.06486 -1.44396,1.06486 -1.44396,0l0,-6.38918c0,-1.06486 1.44396,-0.85189 1.44396,0zm-10.52028,-0.21297c0,-1.06486 1.65024,-0.85189 1.65024,0l0,7.45404c-0.20628,0.85189 -1.65024,0.85189 -1.65024,0l0,-7.45404zm-9.07632,-3.40756l0,10.00972c0.20628,1.06486 -1.23768,0.85189 -1.23768,0l-0.20628,-10.22269c0,-1.06486 1.44396,-0.85189 1.44396,0l0,0.21297zm-10.314,-3.40756l1.23768,14.26917c0,1.06486 -1.44396,1.27784 -1.44396,0.42595l-1.23768,-14.48214c0,-1.06486 1.44396,-1.27784 1.44396,-0.21297l0,-0.00001z" id="svg_56" stroke="null"/>
    <path fill="#FFDF77" d="m388.91018,377.50982l0,17.67673l-85.3999,0l0,-17.67673s14.85216,9.79674 42.69995,9.79674s42.69995,-9.79674 42.69995,-9.79674z" id="svg_57" stroke="null"/>
    <path fill="#ECC249" d="m303.51028,377.50982l85.3999,0s-14.85216,9.79674 -42.69995,9.79674s-42.69995,-9.79674 -42.69995,-9.79674z" id="svg_58" stroke="null"/>
    <path fill="#FFEA92" d="m371.37638,384.11197c0,-1.06486 1.44396,-0.85189 1.44396,0l-0.41256,10.64863c0,1.06486 -1.65024,1.06486 -1.44396,0l0.41256,-10.64863zm-8.87004,2.98162c0,-1.06486 1.44396,-1.06486 1.44396,0l0,7.0281c0,1.06486 -1.44396,0.85189 -1.44396,0l0,-7.24107l0,0.21297zm-9.48888,0.63892c0,-0.85189 1.65024,-0.85189 1.65024,0l-0.20628,6.81513c0,1.06486 -1.65024,0.85189 -1.65024,0l0.20628,-6.81513zm-7.63236,0l0,7.24107c0,0.85189 -1.44396,0.85189 -1.44396,-0.21297l0,-7.0281c0,-1.06486 1.44396,-1.06486 1.44396,0zm-11.3454,-0.63892c0,-1.06486 1.44396,-0.85189 1.44396,0l0,7.66702c0,1.06486 -1.65024,0.85189 -1.65024,0l0,-7.66702l0.20628,0zm-7.83864,-0.85189l0.20628,8.30593c0,0.85189 -1.44396,0.85189 -1.44396,0l0,-8.51891c0,-0.85189 1.44396,-0.85189 1.44396,0l-0.20628,0.21297l0,0.00001zm-8.87004,-1.91675l0.20628,9.58377c0,1.06486 -1.44396,0.85189 -1.44396,0l-0.20628,-9.58377c0,-1.06486 1.44396,-0.85189 1.44396,0zm-8.2512,-3.62054l0.61884,14.90809c0,0.85189 -1.44396,0.63892 -1.65024,-0.21297c0,-5.11134 -0.41256,-10.00972 -0.61884,-14.90809c0,-1.06486 1.44396,-0.85189 1.65024,0l0,0.21297z" id="svg_59" stroke="null"/>
    <path fill="#FFDF77" d="m296.29048,342.15636l0,17.67673l85.60618,0l0,-17.67673s-15.05844,9.79674 -42.90623,9.79674c-27.64151,0 -42.69995,-9.79674 -42.69995,-9.79674z" id="svg_60" stroke="null"/>
    <path fill="#ECC249" d="m381.89666,342.15636l-85.60618,0s15.05844,9.79674 42.69995,9.79674c27.84779,0 42.90623,-9.79674 42.90623,-9.79674z" id="svg_61" stroke="null"/>
    <path fill="#F4B349" d="m296.29048,359.83309l0,17.67673l85.60618,0l0,-17.67673s-15.05844,9.58377 -42.90623,9.58377c-27.64151,0 -42.69995,-9.58377 -42.69995,-9.58377z" id="svg_62" stroke="null"/>
    <path fill="#ECC249" d="m381.89666,359.83309l-85.60618,0s15.05844,9.58377 42.69995,9.58377c27.84779,0 42.90623,-9.58377 42.90623,-9.58377z" id="svg_63" stroke="null"/>
    <path fill="#FFEA92" d="m303.71656,345.77689c0,-1.06486 -1.44396,-0.85189 -1.44396,0l0.82512,14.0562c0,0.85189 1.65024,0.85189 1.65024,0l-1.0314,-14.0562zm10.10772,2.98162c0,-1.06486 -1.44396,-0.85189 -1.44396,0l0.41256,10.64863c0,1.06486 1.65024,0.85189 1.65024,0l-0.41256,-10.64863l-0.20628,0zm8.87004,2.76864c0,-1.06486 -1.44396,-0.85189 -1.44396,0l0,7.24107c0,1.06486 1.65024,0.85189 1.65024,0l0,-7.24107l-0.20628,0zm9.48888,0.85189c0,-1.06486 -1.65024,-0.85189 -1.44396,0l0,6.81513c0,1.06486 1.65024,0.85189 1.65024,0l-0.20628,-6.81513zm7.63236,0l0,7.0281c0,1.06486 1.44396,0.85189 1.44396,0l0,-7.24107c0,-0.85189 -1.44396,-0.85189 -1.44396,0l0,0.21297zm11.3454,-0.63892c0,-1.06486 -1.44396,-0.85189 -1.44396,0l0.20628,7.66702c0,0.85189 1.44396,0.85189 1.44396,0l0,-7.66702l-0.20628,0zm7.83864,-0.85189l-0.20628,8.09296c0,1.06486 1.44396,0.85189 1.44396,0l0,-8.30593c0.20628,-1.06486 -1.23768,-0.85189 -1.23768,0l0,0.21297zm8.87004,-1.91675l-0.20628,9.58377c0,0.85189 1.44396,0.85189 1.44396,0l0.41256,-9.58377c0,-1.06486 -1.65024,-1.06486 -1.65024,0zm8.45748,-3.83351l-0.61884,14.90809c0,1.06486 1.44396,0.85189 1.44396,0l0.61884,-14.90809c0,-1.06486 -1.44396,-0.85189 -1.44396,0z" id="svg_64" stroke="null"/>
    <path fill="#FFD266" d="m300.82864,362.60173c0,-1.06486 -1.65024,-0.85189 -1.65024,0l0.20628,13.84322c0,0.85189 1.65024,0.85189 1.65024,0l-0.20628,-13.84322zm9.90144,3.83351c0,-0.85189 -1.65024,-0.85189 -1.65024,0l0.20628,10.64863c0,1.06486 1.65024,1.06486 1.65024,0l-0.20628,-10.64863zm9.2826,3.19459l0,7.87999c0,1.06486 1.23768,0.85189 1.44396,0l0,-8.09296c0,-1.06486 -1.23768,-0.85189 -1.44396,0l0,0.21297zm10.10772,0.63892l0,6.81513c0,1.06486 1.44396,0.85189 1.44396,0l0,-7.0281c0,-1.06486 -1.44396,-0.85189 -1.44396,0l0,0.21297zm9.48888,0l0,6.38918c0,1.06486 1.23768,1.06486 1.23768,0l0,-6.38918c0,-1.06486 -1.23768,-0.85189 -1.23768,0zm8.2512,-0.42595l0,6.38918c0,1.06486 1.44396,0.85189 1.44396,0l0,-6.38918c0,-1.06486 -1.44396,-1.06486 -1.44396,0zm10.314,-0.21297c0,-1.06486 -1.44396,-0.85189 -1.44396,0l0,7.24107c0.20628,1.06486 1.65024,0.85189 1.65024,0l0,-7.24107l-0.20628,0zm9.2826,-3.62054l-0.20628,10.00972c0,1.06486 1.44396,1.06486 1.44396,0l0.20628,-10.00972c0,-1.06486 -1.44396,-1.06486 -1.44396,0zm10.314,-3.40756l-1.23768,14.48214c0,0.85189 1.44396,1.27784 1.44396,0.21297l1.23768,-14.48214c0,-0.85189 -1.44396,-1.27784 -1.44396,0l0,-0.21297zm-10.10772,-20.65835a83.3371,86.04096 0 0 1 -59.82119,-0.21297c-0.82512,-0.42595 -1.44396,1.06486 -0.61884,1.27784c19.5966,7.87999 41.25599,8.09296 61.05887,0.42595c0.82512,-0.42595 0.41256,-1.91675 -0.61884,-1.49081l0,-0.00001z" id="svg_65" stroke="null"/>
    <path fill="#FFDF77" d="m383.13434,324.47963l0,17.67673l-85.3999,0l0,-17.67673s14.85216,9.58377 42.69995,9.58377c27.64151,0 42.69995,-9.58377 42.69995,-9.58377z" id="svg_66" stroke="null"/>
    <path fill="#ECC249" d="m297.73444,324.47963l85.3999,0s-15.05844,9.58377 -42.69995,9.58377c-27.84779,0 -42.69995,-9.58377 -42.69995,-9.58377z" id="svg_67" stroke="null"/>
    <path fill="#FFEA92" d="m365.39426,331.08178c0,-1.06486 1.65024,-1.06486 1.65024,0l-0.41256,10.64863c0,1.06486 -1.65024,0.85189 -1.65024,0l0.61884,-10.64863l-0.20628,0zm-8.66376,2.76864c0,-1.06486 1.44396,-0.85189 1.44396,0l0,7.24107c0,0.85189 -1.65024,0.85189 -1.65024,0l0,-7.24107l0.20628,0zm-9.48888,0.85189c0,-1.06486 1.65024,-0.85189 1.44396,0l0,6.81513c0,0.85189 -1.65024,0.85189 -1.65024,0l0.20628,-6.81513zm-7.63236,0l0,7.0281c0,1.06486 -1.44396,0.85189 -1.44396,0l0,-7.24107c0,-1.06486 1.44396,-0.85189 1.44396,0l0,0.21297zm-11.3454,-0.85189c0,-0.85189 1.44396,-0.85189 1.44396,0.21297l-0.20628,7.45404c0,1.06486 -1.44396,1.06486 -1.44396,0l0,-7.66702l0.20628,0l0,0.00001zm-7.83864,-0.85189l0.20628,8.51891c0,0.85189 -1.44396,0.63892 -1.44396,-0.21297l0,-8.51891c-0.20628,-0.85189 1.23768,-0.63892 1.23768,0.21297zm-8.87004,-1.70378l0.20628,9.3708c0,1.06486 -1.44396,1.06486 -1.44396,0l-0.20628,-9.58377c0,-0.85189 1.44396,-0.85189 1.44396,0l0,0.21297zm-8.45748,-3.83351l0.61884,14.90809c0,0.85189 -1.44396,0.85189 -1.44396,0c0,-5.11134 -0.41256,-10.00972 -0.61884,-14.90809c0,-1.06486 1.44396,-1.06486 1.44396,0z" id="svg_68" stroke="null"/>
    <path fill="#FFDF77" d="m298.97212,289.12616l0,17.67673l85.3999,0l0,-17.67673s-14.85216,9.79674 -42.69995,9.79674s-42.69995,-9.79674 -42.69995,-9.79674z" id="svg_69" stroke="null"/>
    <path fill="#ECC249" d="m384.37202,289.12616l-85.3999,0s14.85216,9.79674 42.69995,9.79674s42.69995,-9.79674 42.69995,-9.79674z" id="svg_70" stroke="null"/>
    <path fill="#F4B349" d="m298.97212,306.80289l0,17.67673l85.3999,0l0,-17.67673s-14.85216,9.79674 -42.69995,9.79674s-42.69995,-9.79674 -42.69995,-9.79674z" id="svg_71" stroke="null"/>
    <path fill="#ECC249" d="m384.37202,306.80289l-85.3999,0s14.85216,9.79674 42.69995,9.79674s42.69995,-9.79674 42.69995,-9.79674z" id="svg_72" stroke="null"/>
    <path fill="#FFEA92" d="m306.3982,292.7467c0,-1.06486 -1.65024,-0.85189 -1.65024,0l1.0314,14.0562c0,0.85189 1.44396,0.85189 1.44396,0l-0.82512,-14.0562zm10.10772,2.76864c0,-0.85189 -1.44396,-0.63892 -1.44396,0.21297l0.41256,10.64863c0,1.06486 1.44396,1.06486 1.44396,0l-0.41256,-10.64863l0,-0.21297zm8.87004,2.98162c0,-1.06486 -1.65024,-0.85189 -1.65024,0l0,7.24107c0,1.06486 1.65024,0.85189 1.65024,0l0,-7.24107zm9.2826,0.85189c0,-1.06486 -1.44396,-0.85189 -1.44396,0l0.20628,6.81513c0,1.06486 1.65024,0.85189 1.44396,0l0,-6.81513l-0.20628,0zm7.83864,0l0,7.0281c0,1.06486 1.44396,0.85189 1.44396,0l0,-7.24107c0,-0.85189 -1.44396,-0.85189 -1.44396,0l0,0.21297zm11.3454,-0.63892c0,-1.06486 -1.44396,-0.85189 -1.44396,0l0,7.66702c0,0.85189 1.65024,0.85189 1.65024,0l-0.20628,-7.66702zm7.63236,-1.06486l0,8.51891c0,0.85189 1.44396,0.85189 1.44396,-0.21297l0,-8.30593c0,-1.06486 -1.44396,-0.85189 -1.44396,0l0,-0.00001zm9.07632,-1.70378l-0.20628,9.58377c0,0.85189 1.44396,0.85189 1.44396,0l0.20628,-9.58377c0,-1.06486 -1.44396,-1.06486 -1.44396,0zm8.2512,-3.83351c0,5.11134 -0.41256,10.00972 -0.61884,14.90809c0,1.06486 1.44396,0.85189 1.44396,0l0.61884,-14.90809c0,-1.06486 -1.44396,-0.85189 -1.44396,0z" id="svg_73" stroke="null"/>
    <path fill="#FFD266" d="m303.51028,309.57154c-0.20628,-1.06486 -1.65024,-0.85189 -1.65024,0l0,13.84322c0.20628,0.85189 1.65024,0.85189 1.65024,0l0,-13.84322zm9.69516,3.83351c0,-0.85189 -1.44396,-0.85189 -1.44396,0l0,10.64863c0,1.06486 1.65024,1.06486 1.65024,0l0,-10.64863l-0.20628,0zm9.48888,3.19459l-0.20628,7.87999c0,1.06486 1.44396,0.85189 1.44396,0l0.20628,-8.09296c0,-1.06486 -1.44396,-0.85189 -1.44396,0l0,0.21297zm9.90144,0.85189l0,6.60215c0,1.06486 1.65024,0.85189 1.65024,0l0,-6.81513c0,-1.06486 -1.65024,-0.85189 -1.65024,0l0,0.21297l0,0.00001zm9.48888,0l0,6.38918c0,0.85189 1.44396,0.85189 1.44396,0l0,-6.60215c0,-1.06486 -1.44396,-0.85189 -1.44396,0l0,0.21297zm8.45748,-0.63892l0,6.38918c0,1.06486 1.44396,0.85189 1.44396,0l0,-6.38918c0,-1.06486 -1.44396,-1.06486 -1.44396,0zm10.314,-0.21297c0,-1.06486 -1.44396,-0.85189 -1.44396,0l0,7.24107c0,1.06486 1.65024,0.85189 1.65024,0l-0.20628,-7.24107zm9.2826,-3.62054l-0.41256,10.00972c0,1.06486 1.65024,1.06486 1.65024,0l0,-10.00972c0,-1.06486 -1.23768,-0.85189 -1.23768,0zm10.10772,-3.40756l-1.0314,14.48214c0,0.85189 1.23768,1.27784 1.44396,0.21297l1.23768,-14.26917c0,-1.06486 -1.44396,-1.49081 -1.65024,-0.42595l0,0.00001zm-9.90144,-20.65835a83.3371,86.04096 0 0 1 -59.82119,-0.21297c-0.82512,-0.42595 -1.65024,1.06486 -0.61884,1.27784c19.5966,7.87999 41.25599,8.09296 60.85259,0.42595c1.0314,-0.42595 0.41256,-1.91675 -0.41256,-1.49081l0,-0.00001z" id="svg_74" stroke="null"/>
   </g>
  </g>
 </g>
</svg>