<svg xmlns="http://www.w3.org/2000/svg" width="500" height="500" style="width:100%;height:100%">
  <defs>
    <clipPath id="a">
      <path d="M0 0h500v500H0z"/>
    </clipPath>
  </defs>
  <g clip-path="url(#a)">
    <g display="block">
      <path fill="#EEE" d="M439.2 359.9c0 13.1-87.8 23.7-196 23.7C134.7 383.6 47 373 47 360h392.2z"/>
      <path fill="#2FE1CD" d="M368.6 335.2c-1.8 2.4-3.5 5.6-2.4 8.4 1 2.5 3.8 3.7 6.2 4.8 2.4 1.1 5 2.8 5.3 5.5.2 2.5-1.9 4.7-2.6 7.1h30.5a7.8 7.8 0 0 0 1.5-2.8c.2-1 .2-2-.1-2.8v-.2l-.6-1c-1.6-2.2-5-3.1-6-5.7a4 4 0 0 1-.3-2 10 10 0 0 1 2.5-5.3c1.7-2.1 3.6-4.4 3.4-7.1-.3-3-3.3-5-6-6.4-2.7-1.4-5.8-2.9-6.8-5.8-1.1-3.4 1.3-7.1 1.1-10.8a9.7 9.7 0 0 0-6.2-8 17.2 17.2 0 0 0-10.6-.3c-3.5.8-7 2.3-9.4 5-2.3 2.8-3.3 6.8-1.8 10 1.5 3.4 5.3 5.6 5.8 9.2.4 3-1.7 5.7-3.5 8.2z"/>
      <path fill="#00B9AA" d="m377.8 308.5 3.1 12.6.2.8 3 12 .3.8v.3l3.5 13.6.1.8 3 11.6h.5l-2.8-11.4-.1-.3v-.2l-.1-.2-3.5-14-.2-.8-3-11.9-.2-.8-3.3-13c0-.1-.1-.2-.3-.2l-.2.3zm15.6 52.5h.6a53.2 53.2 0 0 0 4-8.3c-.2 0-.3 0-.4.2l-.6 1.2a71 71 0 0 1-3.6 7z"/>
      <path fill="#00B9AA" d="M388.5 349.7h-.2a.3.3 0 0 1-.1-.4l8.2-13.1a.3.3 0 1 1 .4.3l-8.1 13.1-.2.1zm-3.8-14.6h-.2a.3.3 0 0 1-.1-.4l4.5-7.8a.3.3 0 0 1 .5.3L385 335l-.2.1zm-3.1-12.7h-.2a.3.3 0 0 1-.1-.4l5.7-10.6a.3.3 0 1 1 .5.3l-5.7 10.6-.2.1zm0 34.6a49 49 0 0 0 5.3 4h1a67 67 0 0 1-6-4.4h-.4v.5z"/>
      <path fill="#00B9AA" d="M388.4 349.5a.3.3 0 0 0 0-.5l-13.2-8h-.3c-.1.2 0 .3 0 .4l13.3 8c0 .1.1.1.2 0zm-4-14.8.2-.2-.1-.3-7.6-5-.4.1.1.4 7.6 5h.2zm-2.9-12.7.1-.2v-.3l-10-7a.3.3 0 1 0-.2.5l9.8 7h.3zm13.8 39h32.8l1.3-1.3a43.7 43.7 0 0 0 10.5-20.7c1.4-5.4 2.2-11 3-16.4-5.5 1-11 2-16.4 3.7a49.5 49.5 0 0 0-20.1 11.4 44.4 44.4 0 0 0-11 23.4z"/>
      <path fill="#FFF" d="M405.6 361h.8l.7-.7.6-.6 8.8-8.9.5-.6 9.7-9.8.1-.1.3-.3.5-.5 9.1-9.3v-.3c-.1-.2-.3-.1-.4 0l-9.4 9.5-.6.6-9.9 10-.2.3-.3.3-8.8 9-.5.5-1 1zm-6.6 0h.6c0-2 .2-3.8.4-5.7 0-.2 0-.3-.2-.3s-.3 0-.3.2c-.2 2-.4 3.9-.4 5.8z"/>
      <path fill="#FFF" d="M406.6 360.4a.3.3 0 0 0 .5-.2l-.4-15.5a.3.3 0 1 0-.5 0l.4 15.5v.2zm19.8-20.1.2.1c.1 0 .3-.1.3-.3l.4-12a.3.3 0 1 0-.5 0l-.5 12 .1.2z"/>
      <path fill="#FFF" d="M406.8 360.2v-.2c0-.1 0-.2.2-.2l15.5-.3a.3.3 0 0 1 0 .5l-15.5.3h-.2zm20-20.2-.1-.2c0-.2 0-.3.2-.3l12-1a.3.3 0 1 1 0 .6l-12 1-.1-.1zM416 350.9a.3.3 0 0 0 .4-.2l-.4-15.5a.3.3 0 1 0-.5 0l.4 15.5v.2z"/>
      <path fill="#FFF" d="m416.2 350.7-.1-.2.3-.3 15.4-.2a.3.3 0 0 1 0 .5l-15.4.3h-.2z"/>
      <path fill="#2FE1CD" d="M186 335.2c1.8 2.4 3.5 5.6 2.4 8.4-1 2.5-3.8 3.7-6.2 4.8-2.4 1.1-5 2.8-5.3 5.5-.2 2.5 1.9 4.7 2.6 7.1H149a7.8 7.8 0 0 1-1.5-2.8c-.2-1-.2-2 .1-2.8v-.2l.6-1c1.6-2.2 5-3.1 6-5.7a4 4 0 0 0 .3-2 9.5 9.5 0 0 0-2.6-5.3c-1.6-2.1-3.5-4.4-3.3-7.1.3-3 3.3-5 6-6.4 2.7-1.4 5.8-2.9 6.8-5.8 1.1-3.4-1.3-7.1-1.1-10.8a9.7 9.7 0 0 1 6.2-8c3.4-1.4 7.1-1.2 10.6-.3 3.5.8 7 2.3 9.3 5 2.4 2.8 3.4 6.8 2 10-1.6 3.4-5.4 5.6-5.9 9.2-.4 3 1.7 5.7 3.5 8.2z"/>
      <path fill="#00B9AA" d="m176.8 308.5-3.1 12.6-.2.8-3 12-.3.8v.3l-3.5 13.6-.2.8-2.9 11.6h-.5l2.8-11.4.1-.3v-.2l.1-.2 3.5-14 .2-.8 3-11.9.2-.8 3.3-13c0-.1.1-.2.3-.2l.2.3zM161.2 361h-.6a53.2 53.2 0 0 1-4-8.3c.2 0 .3 0 .4.2l.6 1.2a71 71 0 0 0 3.6 7z"/>
      <path fill="#00B9AA" d="M166.1 349.7h.2c.1 0 .2-.2.1-.4l-8.2-13.1a.3.3 0 0 0-.4.3l8.1 13.1.2.1zm3.8-14.6h.2c.1-.1.2-.3.1-.4l-4.5-7.8c-.1-.1-.3-.2-.4-.1-.1 0-.2.2-.1.4l4.5 7.8.2.1zm3.1-12.7h.2c.1 0 .2-.2.1-.4l-5.7-10.6a.3.3 0 1 0-.5.3l5.7 10.6.2.1zm0 34.6a80.9 80.9 0 0 1-5.3 4h-1c2-1.3 4-2.8 6-4.4h.4v.5z"/>
      <path fill="#00B9AA" d="M166.2 349.5a.3.3 0 0 1 0-.5l13.2-8h.3c.1.2 0 .3 0 .4l-13.3 8c0 .1-.1.1-.2 0zm4-14.8-.2-.2.1-.3 7.6-5 .4.1-.1.4-7.6 5h-.2zm2.9-12.7a.3.3 0 0 1 0-.5l9.8-7a.3.3 0 1 1 .3.5l-9.8 7h-.3zm-13.8 39h-32.8l-1.3-1.3a43.7 43.7 0 0 1-10.5-20.7c-1.4-5.4-2.2-11-3-16.4 5.5 1 11 2 16.4 3.7a49.5 49.5 0 0 1 20.1 11.4c2.6 2.6 4.6 5.6 6.3 8.8a44.4 44.4 0 0 1 4.8 14.5z"/>
      <path fill="#FFF" d="M149 361h-.8l-.7-.7-.6-.6-8.8-8.9-.5-.6-9.7-9.8-.1-.1-.3-.3-.5-.5-9.1-9.3v-.3c.1-.2.3-.1.4 0l9.4 9.5.6.6 9.9 10 .2.3.3.3 8.8 9 .5.5 1 1zm6.5 0h-.5c0-2-.2-3.8-.4-5.7 0-.2 0-.3.2-.3s.3 0 .3.2c.2 2 .4 3.9.4 5.8z"/>
      <path fill="#FFF" d="M148 360.4a.3.3 0 0 1-.5-.2l.4-15.5a.3.3 0 1 1 .5 0l-.4 15.5v.2zm-19.8-20.1-.2.1a.3.3 0 0 1-.3-.3l-.4-12a.3.3 0 1 1 .5 0l.5 12-.1.2z"/>
      <path fill="#FFF" d="m147.7 360.2.1-.2c0-.1 0-.2-.2-.2l-15.5-.3a.3.3 0 0 0 0 .5l15.5.3h.1zM127.8 340l.1-.2c0-.2 0-.3-.2-.3l-12-1a.3.3 0 1 0 0 .6l12 1 .1-.1zm10.8 10.9a.3.3 0 0 1-.4-.2l.4-15.5a.3.3 0 1 1 .5 0l-.4 15.5v.2z"/>
      <path fill="#FFF" d="m138.4 350.7.1-.2-.3-.3-15.4-.2a.3.3 0 0 0 0 .5l15.4.3h.2z"/>
      <path fill="#00B9AA" d="M169.4 322.5c-1 2.7-1.4 5.8-.6 8.5h-.2a6 6 0 0 0-1.2-2c-2.5-3-5.2-6-8.7-7.6-4-1.9-8.7-1.7-13-2.3a41 41 0 0 1-12-3.2c-1.6-.7-3.2-1.5-4.4-2.9-3.8-4.4-.7-11.5-2.6-17-2.4-7.7-12.4-9.7-17.3-16-3-3.8-3.9-9.2-2.2-13.8.8-2.2 2.2-4.3 3-6.5 1.9-5.6-.3-11.7-3-17-2.7-5.2-6-10.3-6.7-16.2a18.6 18.6 0 0 1 8.7-17.4 14 14 0 0 1 4.8-1.8c5.7-1 11.5 2.4 15 7s5.4 10.3 7.5 15.7a32 32 0 0 0 9.5 14.4c3.7 2.7 8.3 4 12.5 5.8 4.2 1.9 8.4 4.7 9.8 9 1.8 5.7-1.5 11.6-3 17.4a7 7 0 0 0-.3 4.3c.4 1 1.1 1.9 1.9 2.7 2.5 2.7 5.3 5.1 7.7 8a17 17 0 0 1 4.5 10 20 20 0 0 1-3.8 10.8c-2 3.3-4.5 6.4-5.9 10z"/>
      <path fill="#ACECE1" d="M112.8 214.3c2.8 15.2 9.3 29.2 16.3 42.8a71.6 71.6 0 0 1-16.4-9.5c-.5-.4-1 .5-.6.9 5.2 4 10.8 7.2 16.8 9.7h.2v.2c-.1.5.6.7.9.3l16 30c-8.2-2.8-16.4-6-24.4-9.6-.6-.3-1 .7-.3 1a287.2 287.2 0 0 0 25.4 9.8l7.2 13.3 7.1 13.2.4.6c-7-1.3-13.9-3-20.6-5-.7-.2-1 .8-.4 1 7.1 2.1 14.3 3.9 21.6 5.2a38 38 0 0 1 4.1 11.4c.1.7 1.2.5 1-.2a36 36 0 0 0-4-11.4c.2-.1.3-.2.4-.5a202 202 0 0 1 5.3-31c.2-.7-.8-1-1-.4-2.8 10-4.1 20.3-5.3 30.6l-5-9-10.3-19.2c.8-11.1 2.8-22.1 6-32.9.1-.6-.9-1-1-.3a158 158 0 0 0-6 31.5c-.4-1-1-2-1.5-2.9-4.8-8.9-9.8-17.7-14.4-26.7a136 136 0 0 1 6-25.2c.2-.7-.8-1-1-.4a140 140 0 0 0-5.8 24c-2.6-5-5.1-10.2-7.4-15.4a125 125 0 0 1-8.3-26c0-.7-1.1-.5-1 .1z"/>
      <path fill="#18D7C1" d="M190.5 222.8a68.6 68.6 0 0 1 9.8 53 88.7 88.7 0 0 1-27.2 46l-.1-.2c-2-1.9-4-3.7-5.9-5.8a54.8 54.8 0 0 1-11.7-26.6 75.8 75.8 0 0 1 3.8-41.2 64 64 0 0 1 25.8-31v.2c2.3 1.3 4 3.5 5.5 5.6z"/>
      <path fill="#06957D" d="M195 240c.6-.4-.1-1.3-.6-.8L182.8 251a1187 1187 0 0 0 3.5-32.4c.1-.7-1-.8-1-.2a1733 1733 0 0 1-3.6 32.4l-8-15.6c-.2-.6-1.2-.2-.9.4l8.5 16.7.2.2-3.7 28.4a250.4 250.4 0 0 1-14.9-21.2c-.3-.5-1.3-.1-1 .5a253 253 0 0 0 15.2 21.5c.2.2.4.2.5.2-1.2 9.1-2.5 18.1-3.9 27.2-5-7.2-10.4-14.2-14.5-22-.4-.5-1.3 0-1 .5 4.3 8 9.9 15.4 15.2 22.7l.1.2-1.8 11.7c-.2.7.9.8 1 .1l1.9-11.7 17.2-22.1c.4-.6-.4-1.2-.8-.6l-16.1 20.6 3.9-27c5.9-6.3 11.7-12.7 17.4-19.2.4-.5-.4-1.1-.9-.6a868.5 868.5 0 0 1-16.2 18l3.4-27 12.6-12.6z"/>
      <path fill="#00B9AA" d="M76 271.8c18-4.3 37.5 0 53 10a88.7 88.7 0 0 1 33 42l-.2.1c-2.5 1.2-5 2.4-7.6 3.4a54.8 54.8 0 0 1-29 1.3 75.8 75.8 0 0 1-37-18.5A64 64 0 0 1 68.6 275h.2c2-1.6 4.6-2.4 7.2-3z"/>
      <path fill="#33E1CD" d="M93.7 273.8c-.3-.6-1.3-.3-1 .4l6.6 15c-9.6-5-19.2-10.1-28.9-15-.6-.3-1 .6-.5 1 9.7 4.8 19.3 9.8 28.9 15l-17.4 1.7c-.7 0-.6 1.1 0 1l18.7-1.8.3-.1c8.4 4.5 16.8 9 25.1 13.7-8.3 2.5-16.7 4.6-25.2 6.2-.6.1-.6 1.2.1 1 8.6-1.6 17.2-3.7 25.6-6.3.2 0 .3-.2.3-.4h.1l23.8 13.4c-8.4 2.3-17 4.7-25.6 5.7-.7.1-.6 1.2 0 1 9.1-1 17.9-3.6 26.7-5.8l.2-.1 10.3 6c.6.3 1-.6.5-1l-10.4-6c-4.7-8-9.4-16-14.3-24-.4-.6-1.2 0-.9.5l13.4 22.4c-7.8-4.5-15.7-9-23.6-13.3a876 876 0 0 0-11.8-23.2c-.3-.6-1.2 0-.8.6a867 867 0 0 1 11 21.7c-8-4.4-16-8.8-24-13l-7.2-16.3z"/>
    </g>
    <path fill="#282848" d="m220.2 217.5-12.8-5.7s14.7-4.7 30.3-5c15.5-.3 23.7 1.6 23.7 1.6l.7 3s3.4 2.8 6.3 5.5c-6.4-1.3-25.4-3-48.2.6z" display="block"/>
    <path fill="#FFA9B8" d="M262.1 211.4s-29.8-4.4-48.3 3.2l-6.4-2.8s24.7-8.8 54-3.4l.7 3z" display="block"/>
    <g display="block">
      <path fill="#EAAF1F" d="M75.2 185a1.2 1.2 0 0 1-.2 0h-.1c-.2 0-.4 0-.6-.2h-.1l-.1-.1H74a1.3 1.3 0 0 1-.3-.6v-.3a.5.5 0 0 1 0-.1 1.3 1.3 0 0 1 1-1.3h.7v.1a1.6 1.6 0 0 1 .3.2 1.3 1.3 0 0 1 .5.6v.3c.1.7-.4 1.3-1 1.4zm-.7-2.5zm.3-.1z"/>
      <path fill="#FFDF77" d="M76 183.6a1.2 1.2 0 1 1-2.3.2 1.2 1.2 0 0 1 2.3-.2z"/>
      <path fill="#ECC249" d="M75 185a1.3 1.3 0 1 1-.2-2.6 1.3 1.3 0 0 1 .2 2.6zm-.2-2.3a1 1 0 1 0 .2 2 1 1 0 0 0-.2-2z"/>
      <path fill="#ECC249" d="M75.3 184c0 .1-.1.3-.3.3v.2h-.3v-.1h-.2v-.4h.4l-.1-.1a.4.4 0 0 1-.4-.4c0-.1 0-.3.2-.4v-.2h.3v.2h.2v.4H75s0-.1-.2 0h.1c.2.1.4.2.4.4zm-1.1.3a.8.8 0 0 1-.1-.7v.7h.1zm.2-1.3c-.2 0-.3.2-.3.4l.3-.4zm1.2 0s-.1 0 0 .1zm.1 1c0 .2-.2.3-.3.4 0 0 0 .1 0 0 .2 0 .2-.2.3-.3zm-.1-.2v.3-.3z"/>
      <path fill="#EAAF1F" d="M75 184.8v.2-.2zm.3-.1v.2-.2zm.4.1-.2-.2.1.2zm.2-.2-.2-.2.1.2zm.1-.2-.2-.2.2.2zm.1-.4H76h.2zm.1-.3h-.3.3zm-.1-.4-.2.1h.3z"/>
      <path fill="#ECC249" d="M74.2 183.7v-.3.3z"/>
      <path fill="#EAAF1F" d="M74.9 182.7v-.3.3zm-.3 0v-.2.2zm-.4-.1a526.7 526.7 0 0 1 .1.2v-.2h-.1zm-.2.2.1.2-.1-.2zm-.2.2.2.2-.2-.2zm-.1.3.2.1h-.2c0-.1 0 0 0 0zm-.1.4zm0 .3h.2s0-.1 0 0h-.2zm2.3-.7.2-.1h-.3v.1zm.1-.4-.3.1h.3v-.1zm-.3-.2-.2.2.2-.2zm-.2-.1-.2.2.2-.2zm-.4-.1v.2-.2zm-1.2 1.6-.2.1h.2s0-.1 0 0zm.1.2-.2.2a432.8 432.8 0 0 1 .2-.2zm.1.2-.1.1h.2v-.1zm.2.1-.1.2.1-.2zm.2.1v.2c-.1 0 0 0 0 0v-.2zm.2.1z"/>
    </g>
    <g display="block">
      <path fill="#FFA9B8" d="m261.2 208.5.7 2.8s3.4 2.8 6.3 5.5c-6.4-1.3-25.4-3-48.2.6l-12.6-5.6a84 84 0 0 0-30.4 16.7c6.8 3 12.2 6.8 12.2 6.8 1 6.1-2 11-2 11a84.7 84.7 0 0 0-14.4-13.8c-7.9-5.8-13.2-7-13.2-7-7.7 7.6-2.3 31.6-2.3 31.6h.2a77.2 77.2 0 0 0-3.5 38.3 56 56 0 0 0 12.6 28.2c3.8 4.5 8.4 8.3 13.7 11.4a84.2 84.2 0 0 0 26.8 10.3c2.3.5 4.7 1 7.2 1.3l4 8.6h17.3v-6.7a241.2 241.2 0 0 0 22.8-.7 134 134 0 0 0 26.1-5l5.9 12.4h17.2v-23.8c13.6-10.3 21.8-25.8 21.8-48 0-41.8-29.1-68.3-68.2-75z"/>
      <path fill="#EE7A93" d="M324 215.5c-.5-.3-1 .3-.6.6 3 2 4.5 6 2.8 9.3a7.4 7.4 0 0 1-3.3 3.2c0-2-.8-3.7-2.5-4.8-3-1.9-7.3 1.2-5 4.5 1.5 2.1 4.2 2.3 6.7 1.4a8 8 0 0 1-1 2.7c-2.1 3.8-7.2 4.2-10.4 1.5-.4-.4-.9.2-.5.6 3.1 2.7 8 2.7 10.8-.6 1-1.2 1.7-2.8 1.8-4.5a8.7 8.7 0 0 0 3.1-2.2 8 8 0 0 0-2-11.7zm-2.2 13.5c-1 .3-2 .5-3.1.3-1.8-.3-4.4-2.2-2.7-4.3 1.9-2.4 5-.4 5.7 1.8.3.7.4 1.4.4 2.1l-.3.1z"/>
      <path fill="#EE7A93" d="M315.5 237.2c-2.1 0-4.2-.8-5.8-2.1-.3-.3-.4-.6-.4-1 0-.2.1-.5.3-.7.4-.5 1.2-.6 1.7-.1a6.3 6.3 0 0 0 5.2 1.5 5.7 5.7 0 0 0 4.5-4c-2.6.6-4.9-.2-6.2-2-1.2-1.7-1.1-3.6.2-5 1.3-1.3 3.7-2 5.8-.7 1.4 1 2.4 2.4 2.7 4.2.9-.6 1.5-1.4 2-2.3 1.4-2.8.3-6.4-2.5-8.3-.4-.2-.6-.6-.5-1 0-.4.3-.8.7-1 .3-.2.8-.1 1.2.1a9.1 9.1 0 0 1 4 6.3 8.3 8.3 0 0 1-4.8 8.8 9 9 0 0 1-2 4.5 8 8 0 0 1-6.1 2.8zm2.5-12.5c-.5 0-1 .2-1.4.8-.5.6-.4 1-.3 1.3.4.8 1.6 1.5 2.5 1.7.8.1 1.7 0 2.5-.1a5 5 0 0 0-.3-1.3 3.8 3.8 0 0 0-2.7-2.4h-.3zm-83.2-1.7c12.2 5.8 17.8 27.2 17.8 27.2-4 5.3-10.4 6.8-10.4 6.8 1-23.6-7.5-33.8-7.5-33.8l.1-.2z"/>
      <path fill="#282848" d="M232.5 230.8c4.4 7 2.5 23.8 2.5 23.8-14.1 0-19.8-8-19.8-8a48 48 0 0 1 17.3-15.8zm-69.2 1.7c2 .7 4 2 6.2 3.8A67.5 67.5 0 0 0 162 247a35.1 35.1 0 0 1 1.2-14.5z"/>
      <path fill="#EE7A93" d="M207 345.3v10h-17l-9.6-20.2a84.3 84.3 0 0 0 26.8 10.2zm72.1-.9v10.8H262l-3.5-7.4c7.2-.6 14.2-1.8 20.7-3.4z"/>
      <path fill="#282848" d="M200.1 270.6a4.6 4.6 0 1 1 0 9.3 4.6 4.6 0 0 1 0-9.3zm-36.8 0a4.6 4.6 0 1 1 0 9.3 4.6 4.6 0 0 1 0-9.3zm115.8 84.6v6h-14.4l-2.8-6H279zm-43.5 0v6h-14.4l-2.8-6h17.2zm-66.1-118.9a83.4 83.4 0 0 1 11.4 12.3c-9 8.2-17.9 5.6-17.9 5.6-.5-2.7-.7-5-.9-7.2 2.1-3.9 4.6-7.4 7.4-10.7z"/>
      <path fill="#EE7A93" d="M189.2 235.3c1 6.1-2 11-2 11a84.4 84.4 0 0 0-14.4-13.8l4.2-4c6.8 3 12.2 6.8 12.2 6.8z"/>
      <path fill="#282848" d="M307.6 355.2v6h-14.4l-2.8-6h17.2z"/>
      <path fill="#EE7A93" d="M159.6 225.4c5.3-1.3 11.8.7 17.4 3.1a66.5 66.5 0 0 0-4.2 4c-7.9-5.8-13.2-7-13.2-7v-.1z"/>
      <path fill="#282848" d="M207 355.2v6h-14.3l-2.8-6H207z"/>
      <path fill="#FFF" d="M162.4 274a1.2 1.2 0 1 1-2.3 0 1.2 1.2 0 0 1 2.3 0zm36.8 0a1.2 1.2 0 1 1-2.3 0 1.2 1.2 0 0 1 2.3 0z"/>
      <path fill="#EE7A93" d="M232.7 223.7a65.3 65.3 0 0 0-24 21.1c-.2.5.4 1 .7.6 6-9 14.2-16.2 23.8-21 .4-.3 0-1-.5-.7zM205 316.5a31.8 31.8 0 0 1-20.4 8.8c-8.4.7-18 0-25.4-4.6a18.9 18.9 0 0 1-7.6-24C159.3 282 182 281.3 196 285c6.7 1.8 12.7 5.7 14.5 12.8a20 20 0 0 1-5.4 18.6z"/>
      <path fill="#282848" d="M166.3 304.5a13 13 0 0 0-1.5-3.7c-.9-1.7-3.4-.5-3.3 1.2v.8c-.2 2.7.4 5 1.7 7.4 0 .2.2.3.4.4l.2.5c.7 1.3 3.2.9 3.3-.7.2-2-.1-4-.8-6zm25.3.9c.3-1.2.4-2.5.3-3.9-.1-2-2.9-2-3.5-.4l-.2.3a14 14 0 0 0-2 7.8l.2.6v.5c.1 1.5 2.6 2.2 3.3.8a14 14 0 0 0 1.9-5.7z"/>
      <path fill="#EE7A93" d="M235.5 296.5a8.2 8.2 0 0 0-13.6 4.5c-1.4 8.2 8.2 12 14.4 8.3 5.7-3.4 3.8-10.1-.8-12.8zm-43.2-74.9-8.4 5.5c-.4.3 0 1 .4.6l8.4-5.5c.4-.3 0-1-.4-.6zm14-7-9.9 4.9c-.4.2-.2.9.3.7l9.9-5c.4-.1.1-.8-.3-.6zm-5.5 6-8 4.4c-.5.2 0 .8.4.6l8-4.4c.4-.2 0-.8-.4-.6zm124.5 63.2a63 63 0 0 1-4.2 17.3c-.2.4.5.7.7.3A63.7 63.7 0 0 0 326 284c0-.5-.7-.6-.8-.2zm-4.7 20.9-7 12c-.3.4.4.8.6.4l7-12c.3-.5-.3-.8-.6-.4zm-.8-9.6-4.2 9.8c-.2.4.5.7.7.3l4.1-9.8c.2-.4-.4-.7-.6-.3zM302.9 334v7.1c0 .5.7.4.7 0v-7.2c0-.5-.7-.4-.7 0zm.4 11.3-.2 5.4c0 .5.7.4.8 0l.2-5.4c0-.5-.7-.5-.8 0zm-2.5-5.4c0-.5-.8-.4-.8 0l.6 7.2c0 .5.8.4.7 0l-.5-7.2zm-81.1 8.7-2.7-6.8c-.2-.5-1-.2-.7.2l2.7 6.8c.1.5.8.2.7-.2zm1.7 5.1-.8-3.8c-.1-.4-.8-.2-.7.3l.8 3.8c0 .4.8.2.7-.3zm2.8-2.7-1.8-5.8c-.2-.5-.9-.3-.7.2l1.8 5.8c.1.4.8.2.7-.3zM187 334.7a18 18 0 0 1-6.4-5.3c-.3-.4-1 0-.6.4 1.8 2.4 4 4.3 6.8 5.6.4.2.7-.4.3-.7zm12.4 6.1-8.4-4.1c-.4-.3-.7.4-.3.6l8.4 4.2c.4.2.7-.5.3-.7zm-3.6-5.5-7.4-4.2c-.4-.3-.7.4-.3.6l7.4 4.2c.4.3.7-.4.3-.6zm109.4-99.6a44 44 0 0 0-13.8-11.1c-.4-.3-.7.4-.3.6a43 43 0 0 1 13.5 10.9c.3.4.9 0 .6-.4zm10.3 12.4-6.6-8.5c-.3-.4-.9 0-.6.4l6.6 8.5c.3.4.9 0 .6-.4zm-8.9-6.2-7.9-6.3c-.4-.3-.8.3-.5.6l8 6.2c.3.3.8-.2.4-.5zm13.2 15.1-2.5-5.4c-.2-.4-.9-.2-.7.3l2.5 5.4c.2.4 1 .2.7-.3z"/>
    </g>
    <g display="block">
      <path fill="#FFDF77" d="M364.4 352v8.3h-41.5V352s7.3 4.6 20.7 4.6c13.5 0 20.8-4.6 20.8-4.6z"/>
      <path fill="#ECC249" d="M323 352h41.4s-7.3 4.6-20.8 4.6c-13.4 0-20.7-4.6-20.7-4.6z"/>
      <path fill="#F4B349" d="M364.4 360.3v8.3h-41.5v-8.3s7.3 4.6 20.7 4.6c13.5 0 20.8-4.6 20.8-4.6z"/>
      <path fill="#ECC249" d="M323 360.3h41.4s-7.3 4.6-20.8 4.6c-13.4 0-20.7-4.6-20.7-4.6z"/>
      <path fill="#FFEA92" d="M360.8 353.8c0-.5.7-.5.7 0l-.5 6.5c0 .5-.7.4-.7 0l.5-6.5zm-5 1.3c0-.4.8-.4.8 0l-.3 5c0 .5-.7.5-.7 0l.2-5zm-4.2 1.3c0-.4.7-.4.7 0v3.4c0 .5-.8.5-.8 0v-3.4zm-4.6.4c0-.4.7-.4.7 0v3.2c-.1.5-.8.5-.8 0v-3.2zm-3.7 0v3.4c0 .4-.8.4-.8 0v-3.4c0-.5.8-.4.8 0zm-5.6-.3c0-.5.8-.4.8 0l-.1 3.6c0 .5-.8.4-.8 0l.1-3.6zm-3.7-.4v3.9c0 .4-.6.4-.6 0l-.1-4c0-.4.7-.4.7.1zm-4.3-.9v4.5c0 .5-.6.4-.6 0l-.2-4.5c0-.5.7-.4.8 0zm-4.1-1.7.3 7c0 .4-.7.3-.7-.1l-.3-7c0-.4.7-.4.7 0z"/>
      <path fill="#FFD266" d="M362.2 361.6c0-.4.8-.4.7 0v6.5c0 .5-.8.4-.8 0l.1-6.5zm-4.8 1.9c0-.5.7-.5.7 0v5c0 .5-.8.4-.8 0l.1-5zm-4.6 1.4.2 3.7c0 .5-.8.4-.8 0v-3.8c-.1-.4.6-.4.6 0zm-4.8.4v3.1c0 .5-.7.4-.7 0v-3.2c0-.4.7-.4.7 0zm-4.6 0v3c0 .5-.7.4-.7 0v-3c0-.5.7-.5.7 0zm-4-.3v3c0 .5-.7.5-.7 0v-3c0-.5.7-.4.7 0zm-5.1-.1c0-.5.8-.4.8 0l-.1 3.5c0 .4-.7.4-.7 0v-3.5zm-4.4-1.6v4.7c0 .4-.6.4-.6 0l-.2-4.8c0-.5.8-.4.8 0zm-5-1.7.6 6.8c0 .5-.7.6-.7.1l-.6-6.7c0-.5.6-.6.7-.2z"/>
      <path fill="#FFDF77" d="M319.5 335.4v8.3h41.4v-8.3s-7.2 4.6-20.7 4.6-20.7-4.6-20.7-4.6z"/>
      <path fill="#ECC249" d="M360.9 335.4h-41.4s7.2 4.6 20.7 4.6 20.7-4.6 20.7-4.6z"/>
      <path fill="#F4B349" d="M319.5 343.7v8.3h41.4v-8.3s-7.2 4.6-20.7 4.6-20.7-4.6-20.7-4.6z"/>
      <path fill="#ECC249" d="M360.9 343.7h-41.4s7.2 4.6 20.7 4.6 20.7-4.6 20.7-4.6z"/>
      <path fill="#FFEA92" d="M323 337.1c0-.4-.7-.4-.7 0l.5 6.6c0 .4.7.4.7 0l-.4-6.6zm5 1.4c0-.5-.7-.4-.7 0l.2 5c0 .5.7.5.7 0l-.2-5zm4.3 1.3c0-.5-.8-.4-.8 0v3.4c0 .5.8.4.8 0v-3.4zm4.5.4c0-.5-.7-.4-.7 0l.1 3.2c0 .5.8.4.7 0v-3.2zm3.8 0v3.3c0 .5.7.5.7 0V340c0-.4-.7-.4-.7.1zm5.5-.3c0-.5-.7-.4-.7 0v3.6c0 .4.8.4.8 0l-.1-3.6zm3.7-.4v3.8c0 .5.7.5.7 0v-3.9c0-.4-.7-.4-.7 0zm4.4-.9-.1 4.5c0 .5.7.4.7 0l.1-4.5c0-.5-.7-.4-.7 0zm4-1.7-.3 6.9c0 .5.7.4.7 0l.3-7c0-.5-.7-.4-.7 0z"/>
      <path fill="#FFD266" d="M321.6 345c0-.5-.7-.4-.7 0l.1 6.5c0 .5.7.4.7 0V345zm4.8 1.8c0-.4-.7-.4-.7 0v5c0 .5.8.5.8 0v-5zm4.6 1.5-.1 3.7c0 .5.7.4.7 0l.1-3.8c0-.5-.7-.4-.7 0zm4.8.4v3.1c0 .5.8.4.8 0v-3.2c0-.5-.8-.4-.8 0zm4.6 0v3c0 .5.7.4.7 0v-3c0-.6-.7-.5-.7 0zm4.1-.3v3c0 .5.7.4.7 0v-3c0-.5-.7-.5-.7 0zm5-.1c0-.5-.7-.4-.7 0v3.4c0 .5.8.5.8 0l-.1-3.4zm4.5-1.7-.2 4.8c0 .4.8.4.8-.1v-4.7c0-.5-.6-.4-.6 0zm5-1.6-.6 6.8c0 .4.6.6.7.1l.6-6.7c0-.5-.7-.6-.8-.2zm-5-9.7a40.4 40.4 0 0 1-29-.1c-.3-.2-.7.5-.2.7 9.5 3.6 20 3.7 29.5.1.5-.2.2-.9-.2-.7z"/>
      <path fill="#FFDF77" d="M320.4 269v8.4h41.4V269s-7.2 4.6-20.7 4.6-20.7-4.6-20.7-4.6z"/>
      <path fill="#ECC249" d="M361.8 269h-41.4s7.2 4.7 20.7 4.7 20.7-4.6 20.7-4.6z"/>
      <path fill="#F4B349" d="M320.4 277.4v8.3h41.4v-8.3s-7.2 4.5-20.7 4.5-20.7-4.5-20.7-4.5z"/>
      <path fill="#ECC249" d="M361.8 277.4h-41.4s7.2 4.5 20.7 4.5 20.7-4.5 20.7-4.5z"/>
      <path fill="#FFEA92" d="M324 270.8c0-.5-.8-.4-.7 0l.4 6.6c0 .4.8.4.7-.1l-.4-6.5zm5 1.4c0-.5-.8-.4-.8 0l.2 5c0 .5.8.4.7 0l-.2-5zm4.2 1.3c0-.5-.7-.4-.7 0v3.4c0 .5.7.4.7 0v-3.4zm4.6.4c0-.5-.8-.4-.8 0l.1 3.2c0 .5.8.4.8 0l-.1-3.2zm3.7 0v3.3c0 .5.7.4.7 0v-3.4c0-.4-.7-.4-.7 0zm5.5-.3c0-.5-.7-.5-.7 0v3.6c0 .4.8.4.8 0v-3.6zm3.7-.4v3.8c0 .5.7.4.7 0v-4c0-.5-.7-.4-.7 0zm4.4-.9-.1 4.5c0 .4.7.4.7 0l.1-4.6c0-.4-.7-.4-.7.1zm4-1.8-.3 7c0 .5.7.4.8 0 0-2.4.2-4.7.3-7 0-.5-.7-.4-.8 0z"/>
      <path fill="#FFD266" d="M322.5 278.7c0-.5-.7-.4-.7 0l.1 6.5c0 .4.8.4.7 0v-6.5zm4.8 1.8c0-.5-.7-.4-.7 0l.1 5c0 .5.7.5.7 0v-5zm4.7 1.5-.2 3.7c0 .5.7.4.7 0l.1-3.8c0-.5-.7-.4-.7 0zm4.8.3v3.2c0 .5.7.4.7 0v-3.2c0-.5-.7-.4-.7 0zm4.5 0v3c0 .5.7.5.7 0v-3c0-.5-.7-.4-.7 0zm4.1-.3v3.1c0 .5.7.4.7 0v-3c0-.5-.7-.5-.7 0zm5 0c0-.5-.7-.5-.7 0v3.4c0 .5.8.4.8 0V282zm4.5-1.7-.1 4.7c0 .5.7.4.7 0l.1-4.7c0-.5-.7-.5-.7 0zm5-1.6-.6 6.8c0 .4.7.6.7.1l.6-6.8c0-.4-.7-.6-.7-.1zM355 269a40.4 40.4 0 0 1-29-.1c-.4-.2-.7.5-.3.6 9.5 3.7 20 3.8 29.6.2.4-.2.1-.9-.3-.7z"/>
      <path fill="#FFDF77" d="M360 285.9v8.3h-41.4v-8.3s7.2 4.6 20.7 4.6 20.7-4.6 20.7-4.6z"/>
      <path fill="#ECC249" d="M318.6 285.9H360s-7.2 4.6-20.7 4.6-20.7-4.6-20.7-4.6z"/>
      <path fill="#F4B349" d="M360 294.2v8.3h-41.4v-8.3s7.2 4.5 20.7 4.5 20.7-4.5 20.7-4.5z"/>
      <path fill="#ECC249" d="M318.6 294.2H360s-7.2 4.5-20.7 4.5-20.7-4.5-20.7-4.5z"/>
      <path fill="#FFEA92" d="M356.4 287.6c0-.5.8-.4.7 0l-.4 6.6c0 .4-.8.4-.7-.1l.4-6.5zm-4.9 1.4c0-.5.7-.4.7 0l-.2 5c0 .5-.8.4-.7 0l.2-5zm-4.3 1.3c0-.5.7-.4.7 0v3.4c0 .5-.7.4-.7 0v-3.4zm-4.6.4c0-.5.8-.4.8 0l-.1 3.2c0 .5-.8.4-.8 0l.1-3.2zm-3.6 0v3.3c0 .5-.8.4-.8 0v-3.4c0-.4.7-.4.7 0zm-5.6-.3c0-.5.7-.5.7 0v3.6c-.1.4-.8.4-.8 0v-3.6zm-3.7-.4v3.8c0 .5-.7.4-.7 0v-3.9c0-.5.6-.4.7 0zm-4.4-.9.1 4.5c0 .4-.7.4-.7 0l-.1-4.6c0-.4.7-.4.7.1zm-4.1-1.8.4 7c0 .5-.8.4-.8 0 0-2.4-.2-4.7-.3-7 0-.5.7-.4.7 0z"/>
      <path fill="#FFD266" d="M357.9 295.5c0-.5.7-.4.7 0l-.1 6.5c0 .4-.8.4-.8 0l.2-6.5zm-4.9 1.8c0-.5.8-.4.8 0l-.1 5c0 .5-.8.5-.7 0v-5zm-4.5 1.4v3.8c.1.5-.6.4-.6 0l-.1-3.8c0-.5.7-.4.7 0zm-4.9.4v3.2c0 .5-.7.4-.7 0V299c0-.5.7-.4.7 0zm-4.6 0 .1 3c0 .5-.7.5-.7 0v-3c0-.5.7-.4.7 0zm-4-.2v3c0 .5-.7.4-.7 0v-3c0-.5.7-.5.7 0zm-5-.1c0-.5.7-.5.7 0v3.4c0 .5-.8.4-.8 0v-3.4zm-4.5-1.7.1 4.7c0 .5-.7.4-.7 0l-.1-4.7c0-.5.7-.5.7 0zm-5-1.6.6 6.8c0 .4-.7.6-.7.1l-.6-6.8c0-.4.7-.6.7-.1z"/>
      <path fill="#FFDF77" d="M324.6 302.2v8.3H366v-8.3s-7.2 4.6-20.7 4.6-20.7-4.6-20.7-4.6z"/>
      <path fill="#ECC249" d="M366 302.2h-41.4s7.2 4.6 20.7 4.6 20.7-4.6 20.7-4.6z"/>
      <path fill="#F4B349" d="M324.6 310.5v8.3H366v-8.3s-7.2 4.6-20.7 4.6-20.7-4.6-20.7-4.6z"/>
      <path fill="#ECC249" d="M366 310.5h-41.4s7.2 4.6 20.7 4.6 20.7-4.6 20.7-4.6z"/>
      <path fill="#FFEA92" d="M328.2 304c0-.6-.8-.5-.7 0l.4 6.5c0 .4.8.4.7 0l-.4-6.6zm4.9 1.3c0-.5-.7-.4-.7 0l.2 5c0 .5.7.4.7 0l-.2-5zm4.3 1.3c0-.5-.7-.4-.7 0v3.4c0 .5.7.4.7 0v-3.4zm4.6.4c0-.5-.8-.4-.8 0l.1 3.2c0 .5.8.4.8 0l-.1-3.2zm3.7 0v3.3c0 .5.7.4.7 0v-3.4c0-.4-.7-.4-.7 0zm5.5-.3c0-.5-.7-.4-.7 0v3.6c0 .4.8.4.8 0v-3.6zm3.8-.4-.1 3.8c0 .5.7.4.7 0v-3.9c0-.5-.7-.4-.7 0zm4.3-.9-.1 4.5c0 .4.7.4.7 0l.1-4.5c0-.5-.7-.5-.7 0zm4-1.8c0 2.4-.2 4.7-.3 7 0 .5.7.4.8 0 0-2.4.2-4.7.3-7 0-.5-.7-.4-.8 0z"/>
      <path fill="#FFD266" d="M326.7 311.8c0-.5-.7-.4-.7 0l.1 6.5c0 .4.8.4.7 0v-6.5zm4.8 1.8c0-.4-.7-.4-.7 0l.1 5c0 .5.7.5.7 0v-5zm4.6 1.4-.1 3.8c0 .5.7.4.7 0l.1-3.8c0-.5-.7-.4-.7 0zm4.9.5v3.1c0 .5.7.4.7 0v-3.2c0-.5-.7-.4-.7 0zm4.5 0v3c0 .4.7.4.7 0v-3.1c0-.5-.7-.4-.7 0zm4.1-.3v3c0 .5.7.4.7 0v-3c0-.5-.7-.5-.7 0zm5-.2c0-.4-.7-.3-.7.1v3.4c0 .5.8.4.8 0V315zm4.4-1.6v4.7c0 .5.7.5.7 0l.1-4.7c0-.5-.7-.5-.7 0zm5-1.6-.5 6.8c0 .4.6.6.7.1l.6-6.7c0-.5-.7-.7-.7-.2z"/>
      <path fill="#FFDF77" d="M360.4 318.7v8.3h-41.5v-8.3s7.3 4.6 20.8 4.6c13.4 0 20.7-4.6 20.7-4.6z"/>
      <path fill="#ECC249" d="M319 318.7h41.4s-7.3 4.6-20.7 4.6c-13.5 0-20.8-4.6-20.8-4.6z"/>
      <path fill="#F4B349" d="M360.4 327v8.3h-41.5V327s7.3 4.6 20.8 4.6c13.4 0 20.7-4.6 20.7-4.6z"/>
      <path fill="#ECC249" d="M319 327h41.4s-7.3 4.6-20.7 4.6c-13.5 0-20.8-4.6-20.8-4.6z"/>
      <path fill="#FFEA92" d="M356.8 320.5c0-.5.7-.5.7 0l-.4 6.5c0 .5-.8.4-.8 0l.5-6.5zm-5 1.3c0-.4.8-.4.8 0l-.2 5c0 .5-.8.5-.8 0l.2-5zm-4.2 1.3c0-.4.7-.4.7.1v3.3c0 .5-.8.5-.8 0V323zm-4.6.4c0-.4.7-.4.7 0v3.2c0 .5-.8.5-.8 0l.1-3.2zm-3.7 0v3.4c0 .4-.7.4-.7 0v-3.4c0-.5.7-.4.7 0zm-5.6-.3c0-.5.8-.4.8 0l-.1 3.6c0 .5-.8.4-.7 0v-3.6zm-3.7-.4v3.9c.1.4-.6.4-.6 0l-.1-4c0-.4.7-.4.7.1zm-4.3-.8v4.4c.1.5-.6.4-.6 0l-.2-4.5c0-.5.8-.4.8 0zm-4.1-1.8.3 7c0 .4-.7.3-.7-.1l-.3-7c0-.4.7-.4.7 0z"/>
      <path fill="#FFD266" d="M358.2 328.3c0-.4.8-.4.8 0l-.2 6.5c0 .5-.7.4-.7 0l.1-6.5zm-4.8 1.9c0-.5.8-.4.7 0v5c0 .5-.8.4-.8 0l.1-5zm-4.5 1.4v3.7c0 .5-.7.4-.7 0v-3.8c0-.4.6-.4.7.1zm-4.9.4v3.1c0 .5-.7.5-.7 0v-3.2c0-.4.7-.4.7 0zm-4.6 0v3c0 .5-.6.4-.7 0v-3c0-.5.7-.5.7 0zm-4-.3v3c0 .5-.7.5-.7 0v-3c0-.5.7-.4.7 0zm-5.1-.1c0-.5.8-.4.8 0v3.5c-.1.4-.8.4-.8 0v-3.5zm-4.4-1.6v4.7c.1.5-.6.4-.6 0l-.1-4.8c0-.5.7-.4.7 0zm-5-1.6.6 6.7c0 .5-.7.6-.7.2l-.6-6.8c0-.5.7-.6.7-.1z"/>
      <path fill="#281F1B" d="M336.2 319s4.5 46.2 13.7 49.6h-20.2l6.5-49.6z"/>
      <path fill="#FFDF77" d="M338.4 360.5v8.3H297v-8.3s7.2 4.6 20.7 4.6 20.7-4.6 20.7-4.6z"/>
      <path fill="#ECC249" d="M297 360.5h41.4s-7.2 4.6-20.7 4.6-20.7-4.6-20.7-4.6z"/>
      <path fill="#FFEA92" d="M329.9 363.6c0-.5.7-.4.7 0l-.2 5c0 .5-.8.5-.7 0l.2-5zm-4.3 1.4c0-.5.7-.5.7 0v3.3c0 .5-.7.4-.7 0v-3.4zm-4.6.3c0-.4.8-.4.8 0l-.1 3.2c0 .5-.8.4-.8 0l.1-3.2zm-3.7 0v3.4c0 .4-.7.4-.7-.1v-3.3c0-.5.7-.5.7 0zm-5.5-.3c0-.5.7-.4.7 0v3.6c0 .5-.8.4-.8 0V365zm-3.8-.4.1 3.9c0 .4-.7.4-.7 0v-4c0-.4.7-.4.7 0zm-4.3-.9.1 4.5c0 .5-.7.4-.7 0l-.1-4.5c0-.5.7-.4.7 0zm-4-1.7.3 7c0 .4-.7.3-.8-.1 0-2.4-.2-4.7-.3-7 0-.5.7-.4.8 0z"/>
      <path fill="#FFDF77" d="M293.5 343.9v8.3H335v-8.3s-7.3 4.6-20.8 4.6c-13.4 0-20.7-4.6-20.7-4.6z"/>
      <path fill="#ECC249" d="M335 343.9h-41.5s7.3 4.6 20.7 4.6c13.5 0 20.8-4.6 20.8-4.6z"/>
      <path fill="#F4B349" d="M293.5 352.2v8.3H335v-8.3s-7.3 4.5-20.8 4.5c-13.4 0-20.7-4.5-20.7-4.5z"/>
      <path fill="#ECC249" d="M335 352.2h-41.5s7.3 4.5 20.7 4.5c13.5 0 20.8-4.5 20.8-4.5z"/>
      <path fill="#FFEA92" d="M297.1 345.6c0-.5-.7-.4-.7 0l.4 6.6c0 .4.8.4.8 0l-.5-6.6zm4.9 1.4c0-.5-.7-.4-.7 0l.2 5c0 .5.8.4.8 0l-.2-5zm4.3 1.3c0-.5-.7-.4-.7 0v3.4c0 .5.8.4.8 0v-3.4zm4.6.4c0-.5-.8-.4-.7 0v3.2c0 .5.8.4.8 0l-.1-3.2zm3.7 0v3.3c0 .5.7.4.7 0v-3.4c0-.4-.7-.4-.7 0zm5.5-.3c0-.5-.7-.4-.7 0l.1 3.6c0 .4.7.4.7 0v-3.6zm3.8-.4-.1 3.8c0 .5.7.4.7 0v-3.9c.1-.5-.6-.4-.6 0zm4.3-.9-.1 4.5c0 .4.7.4.7 0l.2-4.5c0-.5-.8-.5-.8 0zm4.1-1.8-.3 7c0 .5.7.4.7 0l.3-7c0-.5-.7-.4-.7 0z"/>
      <path fill="#FFD266" d="M295.7 353.5c0-.5-.8-.4-.8 0l.1 6.5c0 .4.8.4.8 0l-.1-6.5zm4.8 1.8c0-.4-.8-.4-.8 0l.1 5c0 .5.8.5.8 0l-.1-5zm4.5 1.5v3.7c0 .5.6.4.7 0v-3.8c0-.5-.6-.4-.7 0zm4.9.3v3.2c0 .5.7.4.7 0V357c0-.5-.7-.4-.7 0zm4.6 0v3c0 .5.6.5.6 0v-3c0-.5-.6-.4-.6 0zm4-.2v3c0 .5.7.4.7 0v-3c0-.5-.7-.5-.7 0zm5-.1c0-.5-.7-.4-.7 0v3.4c.1.5.8.4.8 0v-3.4zm4.5-1.7-.1 4.7c0 .5.7.5.7 0l.1-4.7c0-.5-.7-.5-.7 0zm5-1.6-.6 6.8c0 .4.7.6.7.1l.6-6.8c0-.4-.7-.6-.7 0zm-4.9-9.7a40.4 40.4 0 0 1-29-.1c-.4-.2-.7.5-.3.6 9.5 3.7 20 3.8 29.6.2.4-.2.2-.9-.3-.7z"/>
      <path fill="#FFDF77" d="M335.6 335.6v8.3h-41.4v-8.3s7.2 4.5 20.7 4.5c13.4 0 20.7-4.5 20.7-4.5z"/>
      <path fill="#ECC249" d="M294.2 335.6h41.4s-7.3 4.5-20.7 4.5c-13.5 0-20.7-4.5-20.7-4.5z"/>
      <path fill="#FFEA92" d="M327 338.7c0-.5.8-.5.8 0l-.2 5c0 .5-.8.4-.8 0l.3-5zm-4.2 1.3c0-.5.7-.4.7 0v3.4c0 .4-.8.4-.8 0V340zm-4.6.4c0-.5.8-.4.7 0v3.2c0 .4-.8.4-.8 0l.1-3.2zm-3.7 0v3.3c0 .5-.7.4-.7 0v-3.4c0-.5.7-.4.7 0zm-5.5-.4c0-.4.7-.4.7.1l-.1 3.5c0 .5-.7.5-.7 0V340zm-3.8-.4.1 4c0 .4-.7.3-.7-.1v-4c-.1-.4.6-.3.6.1zm-4.3-.8.1 4.4c0 .5-.7.5-.7 0l-.1-4.5c0-.4.7-.4.7 0zm-4.1-1.8.3 7c0 .4-.7.4-.7 0 0-2.4-.2-4.7-.3-7 0-.5.7-.5.7 0z"/>
      <path fill="#FFDF77" d="M294.8 319v8.3h41.4V319s-7.2 4.6-20.7 4.6-20.7-4.6-20.7-4.6z"/>
      <path fill="#ECC249" d="M336.2 319h-41.4s7.2 4.6 20.7 4.6 20.7-4.6 20.7-4.6z"/>
      <path fill="#F4B349" d="M294.8 327.3v8.3h41.4v-8.3s-7.2 4.6-20.7 4.6-20.7-4.6-20.7-4.6z"/>
      <path fill="#ECC249" d="M336.2 327.3h-41.4s7.2 4.6 20.7 4.6 20.7-4.6 20.7-4.6z"/>
      <path fill="#FFEA92" d="M298.4 320.7c0-.5-.8-.4-.8 0l.5 6.6c0 .4.7.4.7 0l-.4-6.6zm4.9 1.3c0-.4-.7-.3-.7.1l.2 5c0 .5.7.5.7 0l-.2-5zm4.3 1.4c0-.5-.8-.4-.8 0v3.4c0 .5.8.4.8 0v-3.4zm4.5.4c0-.5-.7-.4-.7 0l.1 3.2c0 .5.8.4.7 0v-3.2zm3.8 0v3.3c0 .5.7.4.7 0v-3.4c0-.4-.7-.4-.7 0zm5.5-.3c0-.5-.7-.4-.7 0v3.6c0 .4.8.4.8 0l-.1-3.6zm3.7-.5v4c0 .4.7.4.7-.1V323c0-.5-.7-.4-.7 0zm4.4-.8-.1 4.5c0 .4.7.4.7 0l.1-4.5c0-.5-.7-.5-.7 0zm4-1.8c0 2.4-.2 4.7-.3 7 0 .5.7.4.7 0l.3-7c0-.5-.7-.4-.7 0z"/>
      <path fill="#FFD266" d="M297 328.6c-.1-.5-.8-.4-.8 0v6.5c.1.4.8.4.8 0v-6.5zm4.7 1.8c0-.4-.7-.4-.7 0v5c0 .5.8.5.8 0v-5zm4.6 1.5-.1 3.7c0 .5.7.4.7 0l.1-3.8c0-.5-.7-.4-.7 0zm4.8.4v3.1c0 .5.8.4.8 0v-3.2c0-.5-.8-.4-.8 0zm4.6 0v3c0 .4.7.4.7 0v-3.1c0-.5-.7-.4-.7 0zm4.1-.3v3c0 .5.7.4.7 0v-3c0-.5-.7-.5-.7 0zm5-.1c0-.5-.7-.4-.7 0v3.4c0 .5.8.4.8 0l-.1-3.4zm4.5-1.7-.2 4.7c0 .5.8.5.8 0v-4.7c0-.5-.6-.4-.6 0zm4.9-1.6-.5 6.8c0 .4.6.6.7.1l.6-6.7c0-.5-.7-.7-.8-.2zm-4.8-9.7a40.4 40.4 0 0 1-29-.1c-.4-.2-.8.5-.3.6 9.5 3.7 20 3.8 29.5.2.5-.2.2-.9-.2-.7z"/>
    </g>
  </g>
</svg>