<svg
  xmlns="http://www.w3.org/2000/svg"
  width="100%"
  height= "100%" 
  viewBox="0 0 200 200"
>
  <defs>
    <clipPath id="b">
      <path d="M0 0h200v200H0z" />
    </clipPath>
  </defs>
  <g clipPath="url(#b)" display="block">
    <path
      fill="#F5F5F5"
      d="m64.6 119.7 22.1 3.4a4.4 4.4 0 0 1 2.8 7l-3.6 4.5c17.3 5.4 36.2.5 48.7-12.7a3 3 0 0 1 4.2-.3l1 .8 1.5 1.2a3.1 3.1 0 0 1 .3 4.5 56.6 56.6 0 0 1-61.9 14.2l-4.2 5.3a4.4 4.4 0 0 1-7.5-1.1l-8-20.9a4.4 4.4 0 0 1 4.7-5.9zM142.1 75 134 54.3a4.4 4.4 0 0 0-7.5-1l-4.2 5.1a56.6 56.6 0 0 0-61.9 14.3 3.1 3.1 0 0 0 .3 4.5l2.5 2a3 3 0 0 0 4.2-.3 47.3 47.3 0 0 1 48.7-12.7l-3.6 4.5a4.4 4.4 0 0 0 2.8 7l22.1 3.4a4.4 4.4 0 0 0 4.7-6z"
    />
  </g>
</svg>
