<svg xmlns="http://www.w3.org/2000/svg" xmlns:xlink="http://www.w3.org/1999/xlink" width="640" height="640"><defs><path d="M529.8 612.46c0 18.55-93.4 33.61-208.43 33.61-115.04 0-208.43-15.06-208.43-33.61 0-18.55 93.39-33.62 208.43-33.62 115.03 0 208.43 15.07 208.43 33.62z" id="b"/><path d="M366.15 231.6l35.23 70.91c66.49 9.97 108.05 16.2 124.68 18.69 20.91 3.13 29.31 28.76 14.3 43.66-18.21 18.1-57.63 57.25-81.12 80.59-6.25 6.2-9.1 15.05-7.66 23.74 5.52 33.12 14.32 85.91 18.48 110.85 3.68 22.07-19.8 38.59-39.34 27.68-21.74-12.15-63.92-35.71-92.02-51.4a34.783 34.783 0 00-33.55-.22c-29.05 15.74-71.14 38.54-93.13 50.45-20.85 11.29-45.46-6.71-41.01-30 4.71-24.64 14.49-75.81 20.9-109.32 1.65-8.67-1.2-17.58-7.58-23.67-23.76-22.66-63.39-60.47-81.79-78.03-15.08-14.38-7.04-39.81 13.57-42.92 17.14-2.58 60.01-9.04 128.59-19.37 26.9-60.61 43.72-98.49 50.44-113.64 9.26-20.86 38.58-21.65 48.94-1.31 2.94 5.77 10.3 20.21 22.07 43.31z" id="c"/><path d="M479.37 346.88c11.31.16 16.28 14.34 7.54 21.53-18.88 15.53-64.45 53.01-86.96 71.52a15.805 15.805 0 00-5.4 15.58c6.58 30.11 19.34 88.44 24.69 112.91 3.18 14.56-12.36 26.03-25.33 18.71-14.01-7.91-37.46-21.14-55.21-31.16a31.055 31.055 0 00-29.82-.39c-29.64 15.74-73.53 39.04-95.67 50.79-21.15 11.23-45.89-7.02-41.4-30.54 4.73-24.73 14.53-76.08 20.95-109.71 1.66-8.69-1.2-17.64-7.6-23.75-23.82-22.75-63.52-60.66-81.97-78.28-15.13-14.45-7.06-39.98 13.63-43.1 17.18-2.59 60.14-9.07 128.86-19.43 19.05-41.54 30.95-67.5 35.71-77.89 7.15-15.6 29.39-15.43 36.3.28 10.69 24.28 36.69 83.35 50.32 114.33 1.9 4.3 6.13 7.1 10.83 7.17 26.73.38 78.88 1.12 100.53 1.43z" id="d"/><path d="M268.81 303c0 11.49-9.48 20.81-21.17 20.81-11.68 0-21.16-9.32-21.16-20.81 0-11.48 9.48-20.8 21.16-20.8 11.69 0 21.17 9.32 21.17 20.8z" id="e"/><path d="M417.5 306.07c0 11.48-9.49 20.8-21.17 20.8-11.68 0-21.17-9.32-21.17-20.8s9.49-20.8 21.17-20.8c11.68 0 21.17 9.32 21.17 20.8z" id="f"/><path d="M289.29 321.07c0 41.39-33.61 75-75 75-41.4 0-75-33.61-75-75s33.6-75 75-75c41.39 0 75 33.61 75 75z" id="g"/><path d="M496.37 321.07c0 41.39-33.61 75-75 75-41.4 0-75-33.61-75-75s33.6-75 75-75c41.39 0 75 33.61 75 75z" id="h"/><path d="M137.91 315.07c3.32 0 6.01 2.69 6.01 6.01v4.05c0 3.32-2.69 6.01-6.01 6.01h-20.53c-3.32 0-6.01-2.69-6.01-6.01v-4.05c0-3.32 2.69-6.01 6.01-6.01h20.53z" id="i"/><path d="M519.54 315.07c3.32 0 6.02 2.69 6.02 6.01v4.05c0 3.32-2.7 6.01-6.02 6.01h-20.53c-3.32 0-6.01-2.69-6.01-6.01v-4.05c0-3.32 2.69-6.01 6.01-6.01h20.53z" id="j"/><path d="M347.94 333.27c-8.46-11.1-13.75-18.04-15.87-20.81-6.39-8.4-18.93-8.69-25.71-.59-2.39 2.85-8.36 9.99-17.91 21.4" id="k"/><path d="M161.39 324c-.62-28.6 10.05-46.24 32.02-52.93 5.32-1.62 11.31-2.59 17.96-2.93" id="l"/><path d="M346.48 406.07c-8.32 10.19-13.52 16.55-15.6 19.1-7.28 8.93-20.68 9.62-28.84 1.49-2.76-2.75-9.65-9.61-20.67-20.59" id="m"/><path d="M272.1 397.07c-2.04-2.7-3.32-4.38-3.83-5.05-7.15-9.42-21.16-9.83-28.85-.85-.68.79-2.36 2.75-5.05 5.9" id="n"/><path d="M399.1 396.07c-2.04-2.7-3.32-4.38-3.83-5.05-7.15-9.42-21.16-9.83-28.85-.85-.68.79-2.36 2.75-5.05 5.9" id="o"/><path d="M436.37 179.22h51.09v6.85h-51.09v-6.85z" id="p"/><path d="M436.37 192.65h51.09v6.85h-51.09v-6.85z" id="q"/><path d="M436.37 206.07h51.09v6.85h-51.09v-6.85z" id="r"/><path d="M475.05 212.8c-.71 1.99-1.16 3.23-1.34 3.73-4.05 11.25-19.92 11.39-24.17.21-.2-.52-.7-1.84-1.49-3.94" id="s"/><path d="M522.83 94.07c0 33.45-27.54 60.61-61.46 60.61s-61.46-27.16-61.46-60.61 27.54-60.61 61.46-60.61 61.46 27.16 61.46 60.61z" id="t"/><path d="M420.13 138.89c.07.06.11.1.12.12a54.23 54.23 0 0116.54 36.57c0 .06.01.23.02.49h50.42a52.656 52.656 0 0115.45-37.06c.01-.02.05-.06.11-.12h-82.66z" id="u"/><path d="M471.37 176.07V99.49c0-7.41 6-13.42 13.42-13.42h-1.07c6.83 0 12.36 5.56 12.32 12.39-.01 2.87.02-2.58 0-.13-.04 7.98-6.56 14.4-14.54 14.31-10.51-.11-28.41-.31-39.12-.43-7.44-.08-13.42-6.13-13.42-13.56v-1.22c0-6.28 5.08-11.36 11.35-11.36h2.11c6.27 0 11.36 5.08 11.36 11.36v78.64" id="v"/><path d="M367.11 112.78l22.54-5.69 1.72 6.79-22.55 5.69-1.71-6.79z" id="w"/><path d="M369.84 61.07l22.37 6.35-1.92 6.73-22.36-6.35 1.91-6.73z" id="x"/><path d="M396.16 17.96l16.93 15.94-4.79 5.09-16.93-15.94 4.79-5.09z" id="y"/><path d="M441.44-6.07L448 16.24l-6.71 1.97-6.56-22.31 6.71-1.97z" id="z"/><path d="M560 113.34l-22.54-5.69-1.72 6.78 22.55 5.69 1.71-6.78z" id="A"/><path d="M557.27 61.63l-22.37 6.35 1.91 6.73 22.37-6.35-1.91-6.73z" id="B"/><path d="M530.95 18.52l-16.93 15.93 4.79 5.1 16.93-15.94-4.79-5.09z" id="C"/><path d="M485.67-5.51l-6.56 22.3 6.71 1.98 6.56-22.31-6.71-1.97z" id="D"/></defs><use xlink:href="#a" fill-opacity="0" stroke="#000"/><use xlink:href="#b" fill="#dcdcdc"/><use xlink:href="#c" fill="#fea547"/><use xlink:href="#c" fill-opacity="0" stroke="#c12a9c" stroke-width="0"/><use xlink:href="#d" fill="#ffc13b"/><use xlink:href="#d" fill-opacity="0" stroke="#c12a9c" stroke-width="0"/><use xlink:href="#e" fill="#421c40"/><use xlink:href="#f" fill="#421c40"/><use xlink:href="#g" fill-opacity="0" stroke="#5b29ff" stroke-width="10"/><use xlink:href="#h" fill-opacity="0" stroke="#5b29ff" stroke-width="10"/><use xlink:href="#i" fill="#5b29ff"/><use xlink:href="#j" fill="#5b29ff"/><use xlink:href="#k" fill-opacity="0" stroke="#5b29ff" stroke-width="10"/><use xlink:href="#l" fill-opacity="0" stroke="#5b29ff" stroke-width="10"/><use xlink:href="#m" fill-opacity="0" stroke="#000" stroke-width="2"/><use xlink:href="#n" fill="#d90658"/><use xlink:href="#n" fill-opacity="0" stroke="#362962" stroke-width="0"/><use xlink:href="#o" fill="#d90658"/><use xlink:href="#o" fill-opacity="0" stroke="#362962" stroke-width="0"/><use xlink:href="#p" fill="#a7a79b"/><use xlink:href="#q" fill="#a7a79b"/><use xlink:href="#r" fill="#a7a79b"/><use xlink:href="#s" fill="#a7a79b"/><use xlink:href="#s" fill-opacity="0" stroke="#362962" stroke-width="0"/><use xlink:href="#t" fill="#ffc13b"/><use xlink:href="#u" fill="#ffc13b"/><use xlink:href="#u" fill-opacity="0" stroke="#362962" stroke-width="0"/><use xlink:href="#v" fill-opacity="0" stroke="#fff" stroke-width="4"/><use xlink:href="#w" fill="#a7a79b"/><use xlink:href="#x" fill="#a7a79b"/><g><use xlink:href="#y" fill="#a7a79b"/></g><g><use xlink:href="#z" fill="#a7a79b"/></g><g><use xlink:href="#A" fill="#a7a79b"/></g><g><use xlink:href="#B" fill="#a7a79b"/></g><g><use xlink:href="#C" fill="#a7a79b"/></g><g><use xlink:href="#D" fill="#a7a79b"/></g></svg>