<svg width="581" height="383"
    xmlns="http://www.w3.org/2000/svg">
    <path fill="#ff2626" opacity="undefined" d="M10.5 13.5h128v27h-128z"/>
    <path fill="#fff" stroke="#000" opacity="undefined" d="M-351.5 87.5h1v1h-1z"/>
    <path opacity="undefined" d="M11 45h128v331H11z"/>
    <path fill="#50ff2d" opacity="undefined" d="M173 49h24v15h-24zM270 140h40v15h-40z"/>
    <path fill="#d139d3" opacity="undefined" d="M316 140h120v15H316z"/>
    <path fill="#1ce8ef" opacity="undefined" d="M445 140h120v15H445z"/>
    <path fill="#50ff2d" opacity="undefined" d="M229 116h40v15h-40z"/>
    <path fill="#d139d3" opacity="undefined" d="M275 116h120v15H275z"/>
    <path fill="#1ce8ef" opacity="undefined" d="M404 116h120v15H404z"/>
    <path fill="#d139d3" opacity="undefined" d="M207 49h48v15h-48z"/>
    <path fill="red" opacity="undefined" d="M263 49h54v15h-54zM324 49h11v15h-11z"/>
    <path fill="#cecece" opacity="undefined" d="M187 71h48v15h-48z"/>
    <path fill="#50ff2d" opacity="undefined" d="M305 163h40v15h-40z"/>
    <path fill="#1ce8ef" opacity="undefined" d="M340 185h120v15H340z"/>
    <path fill="#50ff2d" opacity="undefined" d="M305 207h40v15h-40z"/>
    <path fill="#cecece" opacity="undefined" d="M320 185h12v15h-12zM468 185h12v15h-12z"/>
    <path fill="#50ff2d" opacity="undefined" d="M275 233h40v15h-40z"/>
    <path fill="#d139d3" opacity="undefined" d="M321 233h120v15H321z"/>
    <path fill="#1ce8ef" opacity="undefined" d="M450 233h120v15H450z"/>
    <path fill="#50ff2d" opacity="undefined" d="M229 256h40v15h-40z"/>
    <path fill="#d139d3" opacity="undefined" d="M276 256h120v15H276z"/>
    <path fill="#1ce8ef" opacity="undefined" d="M404 256h120v15H404z"/>
    <path fill="#ff7f00" opacity="undefined" d="M243 71h11v15h-11zM187 306h11v15h-11z"/>
    <path fill="#50ff2d" opacity="undefined" d="M203 94h70v15h-70zM203 284h70v15h-70z"/>
    <path fill="red" opacity="undefined" d="M173 327h11v15h-11z"/>
    <path fill="#cecece" opacity="undefined" d="M173 356h87v15h-87zM272 356h87v15h-87z"/>
    <path fill="#1ce8ef" opacity="undefined" d="M370 356h120v15H370z"/>
    <path fill="#fff200" opacity="undefined" d="M25 68h11v15H25z"/>
    <path fill="#fff" opacity="undefined" d="M43 68h84v15H43z"/>
    <path fill="#fff200" opacity="undefined" d="M33 93h11v15H33z"/>
    <path fill="#fff" opacity="undefined" d="M51 93h73v15H51z"/>
    <path fill="#fff200" opacity="undefined" d="M26 153h11v15H26z"/>
    <path fill="#fff" opacity="undefined" d="M44 153h84v15H44z"/>
    <path fill="#fff200" opacity="undefined" d="M34 178h11v15H34z"/>
    <path fill="#fff" opacity="undefined" d="M52 178h73v15H52z"/>
    <path fill="#fff200" opacity="undefined" d="M25 68h11v15H25z"/>
    <path fill="#fff" opacity="undefined" d="M43 68h84v15H43z"/>
    <path fill="#fff200" opacity="undefined" d="M33 93h11v15H33z"/>
    <path fill="#fff" opacity="undefined" d="M51 93h73v15H51z"/>
    <path fill="#fff200" opacity="undefined" d="M27 224h11v15H27z"/>
    <path fill="#fff" opacity="undefined" d="M45 224h84v15H45z"/>
    <path fill="#fff200" opacity="undefined" d="M35 249h11v15H35z"/>
    <path fill="#fff" opacity="undefined" d="M53 249h73v15H53zM21 24h108v6H21z"/>
</svg>