<svg xmlns="http://www.w3.org/2000/svg" width="48" height="48" viewBox="0 0 172 172"><defs><radialGradient cx="149.128" cy="117.566" r="90.192" gradientUnits="userSpaceOnUse" id="a"><stop offset="0" stop-color="#bd8af5"/><stop offset=".137" stop-color="#b88bf5"/><stop offset=".309" stop-color="#a88ff3"/><stop offset=".499" stop-color="#8f96f2"/><stop offset=".702" stop-color="#6b9eef"/><stop offset=".913" stop-color="#3eaaec"/><stop offset="1" stop-color="#29afea"/></radialGradient><linearGradient x1="75.25" y1="61.701" x2="75.25" y2="230.623" gradientUnits="userSpaceOnUse" id="b"><stop offset="0" stop-color="#124787"/><stop offset=".923" stop-color="#173b75"/><stop offset="1" stop-color="#173a73"/></linearGradient></defs><g fill="none" stroke-miterlimit="10" font-family="none" font-weight="none" font-size="none" text-anchor="none" style="mix-blend-mode:normal"><path d="M0 172V0h172v172z"/><path d="M154.083 21.5H17.917a7.165 7.165 0 00-7.167 7.167v107.5a7.165 7.165 0 007.167 7.166h136.166a7.165 7.165 0 007.167-7.166v-107.5a7.165 7.165 0 00-7.167-7.167z" fill="url(#a)"/><circle cx="35.5" cy="15.5" transform="scale(3.58333)" r="3.5" fill="#fff8de"/><path d="M125.65 86.233c-4.118-4.117-10.768-4.207-14.997-.204l-35.403 33.54V150.5h78.833a7.165 7.165 0 007.167-7.167v-21.5z" fill="#436dcd"/><path d="M139.75 150.5l-78.6-78.6c-4.118-4.118-10.768-4.207-14.997-.205l-35.403 33.54v38.098a7.165 7.165 0 007.167 7.167z" fill="url(#b)"/></g></svg>